<svg width="146" height="144" viewBox="0 0 146 144" fill="none" xmlns="http://www.w3.org/2000/svg">
<path d="M49.3504 123.144C49.6262 122.336 50.1677 121.856 50.975 121.704C51.7823 121.551 52.8775 121.711 54.2604 122.183C54.9367 122.414 55.4915 122.654 55.9248 122.904C56.3515 123.14 56.6836 123.388 56.9212 123.65C57.1487 123.908 57.2884 124.175 57.3403 124.452C57.3821 124.726 57.3531 125.009 57.2531 125.302C57.1083 125.726 56.8785 126.019 56.5636 126.182C56.242 126.332 55.8453 126.388 55.3733 126.351L55.3216 126.502C55.5496 126.693 55.7133 126.906 55.8127 127.143C55.9021 127.377 55.8968 127.64 55.7968 127.932C55.6658 128.316 55.4363 128.559 55.1084 128.661C54.777 128.773 54.3871 128.809 53.9388 128.769L53.9129 128.844C54.3115 129.229 54.5731 129.667 54.6977 130.161C54.8222 130.654 54.788 131.183 54.5949 131.749C54.4536 132.163 54.2503 132.51 53.9852 132.792C53.7165 133.083 53.4063 133.298 53.0545 133.438C52.6891 133.583 52.2922 133.656 51.8638 133.656C51.4253 133.653 50.9638 133.569 50.4793 133.403C49.9342 133.217 49.4739 132.964 49.0985 132.644L49.0106 132.902C48.9072 133.205 48.7352 133.428 48.4946 133.571C48.2541 133.714 47.9572 133.726 47.6039 133.605L46.1806 133.119L46.6253 131.817L48.4422 132.437L48.5663 132.074C48.3024 131.724 48.1417 131.337 48.0841 130.912C48.023 130.496 48.0735 130.051 48.2355 129.577C48.3769 129.163 48.5819 128.81 48.8505 128.519C49.1157 128.237 49.4309 128.024 49.7963 127.878C50.1481 127.739 50.5433 127.671 50.9818 127.674C51.4067 127.684 51.8615 127.772 52.346 127.937C52.6892 128.055 53.0019 128.195 53.284 128.359C53.483 128.371 53.694 128.347 53.917 128.288C54.1401 128.229 54.2878 128.093 54.3602 127.881C54.4429 127.639 54.3786 127.448 54.1671 127.308C53.9556 127.168 53.6783 127.04 53.3351 126.923L51.5787 126.323C50.5289 125.964 49.8407 125.504 49.5143 124.941C49.1844 124.389 49.1298 123.79 49.3504 123.144ZM50.931 123.565C50.8414 123.828 50.875 124.076 51.0318 124.31C51.1921 124.534 51.5498 124.74 52.105 124.93L54.8153 125.856C55.2609 125.805 55.5527 125.578 55.6906 125.174C55.7905 124.881 55.7556 124.588 55.5857 124.293C55.4058 123.995 55.0281 123.747 54.4527 123.551L53.2263 123.132C52.6004 122.918 52.0932 122.852 51.7047 122.934C51.3096 123.002 51.0517 123.212 50.931 123.565ZM51.9582 129.073C51.4232 128.89 50.9864 128.882 50.6479 129.048C50.3093 129.214 50.0677 129.509 49.9229 129.933L49.7833 130.342C49.6385 130.766 49.6492 131.147 49.8154 131.486C49.9815 131.824 50.3321 132.085 50.8671 132.268C51.4021 132.451 51.8389 132.459 52.1774 132.293C52.516 132.126 52.7576 131.831 52.9024 131.407L53.042 130.999C53.1868 130.575 53.1761 130.193 53.0099 129.855C52.8438 129.516 52.4932 129.256 51.9582 129.073Z" fill="black"/>
<path d="M46.1026 121.93C46.6648 122.213 47.1242 122.558 47.4809 122.964C47.8376 123.371 48.0845 123.818 48.2215 124.304C48.3586 124.791 48.3906 125.309 48.3176 125.857C48.2398 126.415 48.0523 126.99 47.7549 127.58C47.4576 128.171 47.1081 128.664 46.7064 129.059C46.2951 129.449 45.8578 129.736 45.3946 129.921C44.9171 130.111 44.4184 130.188 43.8985 130.153C43.3787 130.119 42.8567 129.969 42.3327 129.706C41.8182 129.447 41.3968 129.121 41.0687 128.729C40.7358 128.347 40.5032 127.919 40.3709 127.446C40.2386 126.974 40.2089 126.475 40.2818 125.951C40.3452 125.421 40.5136 124.885 40.7869 124.342L41.0819 123.756L46.3699 126.418L46.4921 126.175C46.7847 125.593 46.8434 125.026 46.6684 124.472C46.4885 123.928 46.0794 123.495 45.4411 123.174C44.9647 122.934 44.5094 122.83 44.0752 122.862C43.6267 122.899 43.2113 123.037 42.8291 123.274L42.2888 121.928C42.7523 121.623 43.3157 121.453 43.9788 121.417C44.6325 121.376 45.3404 121.547 46.1026 121.93ZM42.9297 128.519C43.206 128.658 43.4872 128.74 43.7734 128.765C44.05 128.785 44.3196 128.747 44.5823 128.653C44.8305 128.563 45.0623 128.422 45.2774 128.232C45.4926 128.042 45.6721 127.804 45.816 127.518L45.8663 127.418L42.1647 125.555L42.0928 125.698C41.8003 126.279 41.7344 126.825 41.8953 127.336C42.0418 127.852 42.3866 128.246 42.9297 128.519Z" fill="black"/>
<path d="M39.2911 117.768C39.8883 118.18 40.2185 118.641 40.2816 119.151C40.3387 119.669 40.1916 120.183 39.8405 120.693L37.1437 124.605L39.2384 126.049L38.4393 127.209L36.9506 126.182C36.696 126.007 36.4826 125.931 36.3106 125.955C36.1326 125.988 35.9528 126.136 35.7712 126.399L34.5998 128.099L33.2561 127.173L34.9087 124.775L32.0105 122.777L32.8095 121.618L35.7078 123.616L38.795 119.137L35.8968 117.139L36.6959 115.98L39.2911 117.768Z" fill="black"/>
<path d="M20.9056 113.183C21.1918 113.527 21.323 113.828 21.2993 114.083C21.2688 114.33 21.151 114.539 20.9458 114.709L20.6873 114.924C20.4822 115.094 20.2553 115.171 20.0068 115.156C19.7514 115.132 19.4841 114.952 19.2047 114.616C18.9185 114.271 18.7907 113.975 18.8212 113.728C18.8449 113.473 18.9593 113.26 19.1645 113.09L19.423 112.875C19.6281 112.705 19.8584 112.631 20.1137 112.655C20.3623 112.67 20.6262 112.846 20.9056 113.183ZM29.6924 110.691L27.8936 108.525L23.7082 112L25.507 114.166L24.4237 115.066L21.5108 111.557L26.7796 107.183L25.0932 105.152L26.1764 104.252L30.7757 109.792L29.6924 110.691Z" fill="black"/>
<path d="M26.2855 103.903L19.2719 108.258L18.3518 106.777L19.5479 106.034L19.5057 105.966C19.2795 106.006 19.051 106.022 18.8204 106.015C18.5751 106.004 18.3429 105.953 18.1238 105.863C17.8956 105.779 17.6778 105.651 17.4702 105.478C17.2627 105.306 17.0689 105.075 16.8888 104.785C16.4498 104.078 16.3264 103.363 16.5184 102.642C16.7104 101.92 17.2323 101.294 18.0841 100.765L22.5968 97.9627L23.5168 99.4443L19.2217 102.112C18.1071 102.804 17.8509 103.635 18.453 104.604C18.5712 104.795 18.7137 104.963 18.8806 105.111C19.0385 105.264 19.2123 105.382 19.402 105.465C19.5917 105.548 19.7917 105.587 20.002 105.582C20.2067 105.568 20.4088 105.499 20.6081 105.375L25.3654 102.421L26.2855 103.903Z" fill="black"/>
<path d="M18.5663 86.2927C18.7677 86.9895 18.7313 87.5552 18.4572 87.9897C18.1728 88.4272 17.7335 88.7318 17.1391 88.9036L12.5739 90.2229L13.2803 92.6669L11.9276 93.0578L11.4256 91.3209C11.3398 91.0237 11.2227 90.8299 11.0744 90.7396C10.9159 90.6521 10.683 90.6528 10.3755 90.7417L8.39269 91.3147L7.93958 89.7469L10.7371 88.9384L9.75979 85.5568L11.1124 85.1659L12.0897 88.5475L17.3159 87.0371L16.3386 83.6555L17.6912 83.2646L18.5663 86.2927Z" fill="black"/>
<path d="M17.5215 79.1864C17.6088 79.7881 17.5874 80.3463 17.4574 80.861C17.3257 81.3652 17.0997 81.8129 16.7793 82.2044C16.4573 82.5852 16.0455 82.9037 15.5437 83.1597C15.042 83.4158 14.4638 83.5913 13.8094 83.6863C13.1549 83.7813 12.5507 83.7774 11.9969 83.6746C11.443 83.5717 10.9576 83.3835 10.5407 83.1099C10.1222 82.8257 9.77817 82.4607 9.50866 82.0148C9.23761 81.5583 9.05842 81.0292 8.97109 80.4275C8.88375 79.8258 8.90589 79.2729 9.03751 78.7688C9.16759 78.2541 9.39361 77.8063 9.71558 77.4255C10.036 77.034 10.4471 76.7103 10.9489 76.4542C11.4506 76.1982 12.0287 76.0226 12.6832 75.9276C13.3377 75.8326 13.9418 75.8366 14.4957 75.9394C15.0495 76.0423 15.5357 76.2358 15.9542 76.5199C16.3712 76.7935 16.7152 77.1586 16.9862 77.615C17.2557 78.0609 17.4341 78.5848 17.5215 79.1864ZM16.1598 79.3841C16.0678 78.7507 15.805 78.2769 15.3714 77.9626C14.9257 77.6393 14.3228 77.5328 13.5627 77.6431L12.3277 77.8224C11.5676 77.9327 11.0252 78.2054 10.7003 78.6406C10.3634 79.0668 10.2409 79.5965 10.3328 80.2299C10.4247 80.8632 10.6936 81.3416 11.1393 81.6649C11.573 81.9792 12.1698 82.0812 12.9298 81.9709L14.1649 81.7916C14.9249 81.6813 15.4734 81.4131 15.8104 80.9869C16.1352 80.5517 16.2517 80.0175 16.1598 79.3841Z" fill="black"/>
<path d="M15.5874 69.8402L15.588 69.9202C15.8019 70.004 16.0106 70.1146 16.2143 70.2518C16.4072 70.3785 16.5789 70.5373 16.7296 70.7283C16.8696 70.9193 16.9831 71.1425 17.0703 71.3979C17.1574 71.6533 17.2021 71.9517 17.2045 72.293C17.2103 73.125 16.9429 73.7989 16.4025 74.3146C15.8621 74.8304 15.0905 75.0918 14.0879 75.0987L8.77602 75.1356L8.76391 73.3917L13.8198 73.3565C15.1318 73.3474 15.7838 72.7722 15.7758 71.6309C15.7743 71.4069 15.7461 71.1884 15.6913 70.9755C15.6258 70.7626 15.5338 70.5712 15.4153 70.4014C15.2968 70.2315 15.1519 70.0992 14.9805 70.0044C14.7985 69.899 14.5848 69.8471 14.3394 69.8488L8.73956 69.8878L8.72745 68.1438L16.9832 68.0864L16.9954 69.8304L15.5874 69.8402Z" fill="black"/>
<path d="M17.9632 63.6218C17.8828 64.2352 17.7103 64.772 17.4456 65.2322C17.1824 65.6818 16.8435 66.0516 16.429 66.3416C16.0158 66.621 15.5331 66.8159 14.9807 66.9264C14.4297 67.0264 13.8264 67.0334 13.1707 66.9475C12.5149 66.8616 11.9337 66.6994 11.4271 66.461C10.9218 66.2119 10.5056 65.8992 10.1783 65.5228C9.85251 65.1359 9.62029 64.6913 9.48168 64.189C9.34446 63.6762 9.31533 63.1184 9.3943 62.5155C9.50513 61.6694 9.77359 61.0161 10.1997 60.5555C10.6272 60.0844 11.1431 59.7593 11.7475 59.5803L12.3006 61.0244C11.9004 61.1226 11.5692 61.3105 11.307 61.5881C11.0461 61.8551 10.8844 62.2266 10.8221 62.7025C10.7362 63.3583 10.8707 63.8923 11.2255 64.3045C11.5697 64.7154 12.0697 64.9637 12.7254 65.0496L14.0897 65.2283C14.7349 65.3128 15.282 65.2016 15.731 64.8947C16.18 64.5877 16.4488 64.0958 16.5375 63.4189C16.604 62.9113 16.5417 62.4835 16.3505 62.1358C16.1608 61.7774 15.8775 61.4768 15.5005 61.2337L16.4441 60.0664C16.9806 60.4056 17.3986 60.8692 17.6981 61.457C17.987 62.0435 18.0754 62.7651 17.9632 63.6218Z" fill="black"/>
<path d="M7.16572 56.6297L7.6266 54.9477L12.4411 56.2669L12.4623 56.1898C12.2791 56.0511 12.1118 55.8947 11.9605 55.7205C11.8016 55.5332 11.6807 55.3286 11.5977 55.1068C11.5044 54.8822 11.4505 54.6351 11.4358 54.3657C11.4212 54.0962 11.459 53.7969 11.5492 53.4677C11.769 52.6653 12.209 52.0891 12.8689 51.739C13.5289 51.389 14.3424 51.3464 15.3094 51.6114L20.4326 53.0152L19.9717 54.6972L15.0954 53.3611C13.8301 53.0144 13.0466 53.3914 12.745 54.4921C12.6858 54.7082 12.6588 54.9275 12.6642 55.1502C12.6592 55.37 12.6908 55.5778 12.7589 55.7734C12.8269 55.969 12.9343 56.1422 13.081 56.293C13.2305 56.4335 13.4184 56.5347 13.6448 56.5967L19.0457 58.0766L18.5848 59.7586L7.16572 56.6297Z" fill="black"/>
<path d="M39.7701 28.6464C40.3546 29.2681 40.5253 29.9714 40.2823 30.7562C40.0392 31.541 39.3854 32.434 38.3207 33.4349C37.8 33.9245 37.3281 34.3023 36.9048 34.5685C36.4967 34.8351 36.1214 35.0122 35.7792 35.0997C35.4447 35.1799 35.1429 35.1782 34.8738 35.0944C34.6125 35.0034 34.3759 34.8452 34.164 34.6198C33.8572 34.2934 33.7054 33.9529 33.7088 33.5983C33.7273 33.2443 33.8634 32.8674 34.1172 32.4677L34.0076 32.3511C33.7325 32.4634 33.467 32.508 33.2111 32.485C32.963 32.4548 32.7331 32.3269 32.5212 32.1016C32.2435 31.8063 32.1363 31.4898 32.1996 31.1522C32.2555 30.8068 32.4062 30.4454 32.6518 30.0682L32.597 30.0099C32.071 30.1823 31.5608 30.2081 31.0665 30.0872C30.5722 29.9663 30.1205 29.6883 29.7113 29.2531C29.4118 28.9344 29.1997 28.5921 29.0752 28.2261C28.9433 27.8522 28.8983 27.4773 28.9401 27.1013C28.9823 26.7102 29.1036 26.3253 29.3039 25.9466C29.512 25.5607 29.8026 25.1923 30.1756 24.8416C30.5952 24.4471 31.0343 24.1588 31.4926 23.9767L31.3063 23.7785C31.0871 23.5454 30.9705 23.289 30.9565 23.0094C30.9425 22.7297 31.0715 22.4621 31.3435 22.2063L32.4392 21.1761L33.3818 22.1786L31.9829 23.4938L32.246 23.7736C32.6782 23.7039 33.0958 23.7432 33.4987 23.8914C33.8944 24.0319 34.2639 24.2848 34.6073 24.65C34.9068 24.9686 35.1225 25.3149 35.2544 25.6887C35.3789 26.0547 35.4201 26.4333 35.3778 26.8244C35.3361 27.2004 35.2111 27.5814 35.003 27.9674C34.7954 28.3383 34.5051 28.6991 34.132 29.0498C33.8678 29.2982 33.5972 29.5087 33.3202 29.6813C33.2169 29.8517 33.1391 30.0492 33.0869 30.274C33.0347 30.4988 33.0853 30.6928 33.2387 30.856C33.4141 31.0425 33.613 31.075 33.8356 30.9536C34.0582 30.8322 34.3016 30.6473 34.5658 30.3988L35.918 29.1275C36.7263 28.3676 37.4552 27.9751 38.105 27.9498C38.7474 27.9168 39.3024 28.149 39.7701 28.6464ZM38.6578 29.8459C38.4678 29.6438 38.2328 29.5573 37.9527 29.5864C37.6799 29.6233 37.3297 29.8426 36.9023 30.2445L34.8157 32.2063C34.6519 32.6238 34.7162 32.988 35.0084 33.2988C35.2203 33.5242 35.4962 33.6308 35.8362 33.6187C36.1839 33.5992 36.5792 33.3812 37.0222 32.9648L37.9664 32.077C38.4482 31.624 38.7441 31.2068 38.8539 30.8254C38.9789 30.4444 38.9135 30.1179 38.6578 29.8459ZM33.3101 28.1755C33.7219 27.7883 33.9337 27.4062 33.9453 27.0293C33.9569 26.6523 33.8093 26.3006 33.5024 25.9742L33.2065 25.6595C32.8997 25.3331 32.5578 25.1641 32.1808 25.1525C31.8039 25.1408 31.4095 25.3287 30.9976 25.7159C30.5857 26.1031 30.3739 26.4852 30.3623 26.8622C30.3507 27.2391 30.4983 27.5908 30.8052 27.9172L31.1011 28.2319C31.408 28.5583 31.7499 28.7273 32.1268 28.739C32.5038 28.7506 32.8982 28.5628 33.3101 28.1755Z" fill="black"/>
<path d="M42.3614 26.3433C41.8483 26.7076 41.3286 26.9523 40.8025 27.0772C40.2764 27.2022 39.7661 27.2113 39.2717 27.1045C38.7772 26.9976 38.3048 26.7836 37.8544 26.4624C37.3978 26.1325 36.978 25.6979 36.5952 25.1587C36.2124 24.6194 35.9405 24.0799 35.7796 23.54C35.6274 22.994 35.5781 22.4731 35.6316 21.9772C35.6876 21.4665 35.8526 20.9896 36.1267 20.5465C36.4008 20.1034 36.777 19.712 37.2554 19.3724C37.725 19.0389 38.2099 18.819 38.7099 18.7125C39.2037 18.5974 39.6904 18.592 40.17 18.6963C40.6496 18.8006 41.1041 19.0077 41.5335 19.3177C41.9715 19.6215 42.3666 20.0213 42.7185 20.517L43.0983 21.0519L38.2711 24.479L38.4286 24.7008C38.8053 25.2314 39.2793 25.5489 39.8506 25.6535C40.4157 25.7493 40.9897 25.5904 41.5724 25.1767C42.0073 24.868 42.3121 24.5142 42.4869 24.1154C42.6641 23.7018 42.7373 23.2705 42.7063 22.8215L44.1492 22.9745C44.201 23.5264 44.0877 24.1039 43.8095 24.707C43.5399 25.3039 43.0572 25.8493 42.3614 26.3433ZM38.0241 20.4552C37.7719 20.6343 37.568 20.8445 37.4123 21.0858C37.2653 21.321 37.1722 21.5768 37.1329 21.8532C37.0962 22.1147 37.1116 22.3851 37.179 22.6643C37.2463 22.9435 37.3727 23.2135 37.5579 23.4745L37.6228 23.5658L41.0018 21.1668L40.9091 21.0364C40.5325 20.5058 40.0808 20.192 39.5541 20.095C39.0299 19.9832 38.5199 20.1032 38.0241 20.4552Z" fill="black"/>
<path d="M49.2278 22.2735C48.5845 22.6086 48.0228 22.6847 47.5427 22.5018C47.0576 22.3094 46.6722 21.9389 46.3864 21.3902L44.1913 17.1756L41.935 18.3507L41.2846 17.102L42.8881 16.2668C43.1625 16.1239 43.3293 15.9708 43.3886 15.8077C43.443 15.635 43.3963 15.4068 43.2485 15.123L42.295 13.2924L43.7425 12.5385L45.0876 15.1212L48.2096 13.4951L48.86 14.7439L45.7381 16.3699L48.251 21.1947L51.3729 19.5687L52.0234 20.8175L49.2278 22.2735Z" fill="black"/>
<path d="M61.8864 8.17293C61.4478 8.26448 61.1213 8.24002 60.9067 8.09957C60.7026 7.95694 60.5733 7.7551 60.5188 7.49406L60.4502 7.16515C60.3957 6.90411 60.4334 6.6674 60.5634 6.45502C60.7039 6.24046 60.9882 6.0885 61.4163 5.99913C61.8548 5.90758 62.1761 5.93313 62.3803 6.07576C62.5948 6.21621 62.7294 6.41696 62.7838 6.678L62.8525 7.00691C62.907 7.26795 62.864 7.50575 62.7236 7.72031C62.5936 7.93269 62.3145 8.08357 61.8864 8.17293ZM59.9751 17.104L62.7316 16.5285L61.62 11.2033L58.8634 11.7787L58.5757 10.4004L63.0395 9.46864L64.4388 16.1721L67.0231 15.6327L67.3108 17.011L60.2628 18.4822L59.9751 17.104Z" fill="black"/>
<path d="M67.5686 17.2712L67.0027 9.03462L68.7426 8.91508L68.8391 10.3198L68.9189 10.3143C68.9894 10.0956 69.0819 9.8861 69.1965 9.68578C69.3209 9.47408 69.4742 9.29249 69.6562 9.14098C69.8375 8.97884 70.053 8.84643 70.3025 8.74375C70.5521 8.64107 70.8471 8.57803 71.1876 8.55464C72.0177 8.49761 72.7067 8.72291 73.2548 9.23053C73.8029 9.73816 74.1113 10.4921 74.18 11.4924L74.5441 16.7919L72.8042 16.9115L72.4577 11.8674C72.3678 10.5585 71.7535 9.94312 70.6148 10.0213C70.3913 10.0367 70.1754 10.0836 69.9669 10.1621C69.7578 10.2299 69.5721 10.3282 69.4098 10.457C69.2476 10.5857 69.1195 10.7442 69.0255 10.9324C68.9422 11.1199 68.9086 11.3307 68.9246 11.5648L69.3085 17.1517L67.5686 17.2712Z" fill="black"/>
<path d="M86.7417 18.6923C86.0316 18.5441 85.5488 18.2471 85.2931 17.8015C85.0396 17.3454 84.9761 16.8146 85.1025 16.2089L86.0736 11.5572L83.5833 11.0374L83.871 9.65907L85.6408 10.0285C85.9436 10.0917 86.1697 10.079 86.3189 9.99029C86.4704 9.89114 86.5788 9.68495 86.6442 9.3717L87.066 7.35125L88.6635 7.68474L88.0685 10.5353L91.5142 11.2546L91.2265 12.6329L87.7808 11.9136L86.6691 17.2388L90.1149 17.9581L89.8272 19.3364L86.7417 18.6923Z" fill="black"/>
<path d="M93.5121 21.0964C92.9396 20.8919 92.4563 20.6117 92.0624 20.2559C91.6785 19.9036 91.3886 19.4942 91.1927 19.0279C91.0068 18.5651 90.9182 18.052 90.9268 17.4888C90.9354 16.9255 91.0509 16.3325 91.2733 15.7097C91.4957 15.0869 91.782 14.5548 92.1321 14.1135C92.4822 13.6723 92.8758 13.3314 93.3127 13.091C93.7598 12.8542 94.2434 12.7211 94.7636 12.6917C95.2938 12.6658 95.8452 12.7551 96.4178 12.9596C96.9904 13.1641 97.4686 13.4425 97.8525 13.7948C98.2464 14.1506 98.5363 14.56 98.7222 15.0228C98.9181 15.4891 99.0117 16.004 99.0031 16.5672C98.9946 17.1305 98.8791 17.7235 98.6566 18.3463C98.4342 18.9691 98.148 19.5012 97.7978 19.9425C97.4477 20.3837 97.0491 20.7228 96.6021 20.9596C96.1652 21.2 95.6816 21.3331 95.1513 21.3589C94.6311 21.3884 94.0847 21.3008 93.5121 21.0964ZM93.9749 19.8005C94.5776 20.0158 95.1193 20.0053 95.6001 19.7693C96.0944 19.5267 96.4708 19.0438 96.729 18.3205L97.1487 17.1452C97.407 16.422 97.4199 15.8149 97.1874 15.3242C96.9686 14.8269 96.5578 14.4707 95.955 14.2555C95.3523 14.0402 94.8038 14.0539 94.3094 14.2964C93.8287 14.5325 93.4592 15.0122 93.2009 15.7355L92.7812 16.9108C92.5229 17.634 92.5032 18.2443 92.7221 18.7415C92.9546 19.2323 93.3722 19.5853 93.9749 19.8005Z" fill="black"/>
<path d="M102.676 23.7613L102.606 23.7243C102.431 23.8741 102.236 24.0069 102.019 24.1226C101.817 24.2337 101.596 24.3112 101.357 24.3549C101.123 24.3892 100.872 24.3851 100.606 24.3425C100.339 24.2999 100.055 24.1998 99.752 24.0421C99.0141 23.6578 98.5438 23.1061 98.341 22.3871C98.1382 21.6681 98.2683 20.864 98.7315 19.9747L101.185 15.2635L102.732 16.0691L100.397 20.5533C99.7905 21.7169 99.9936 22.5624 101.006 23.0896C101.205 23.1931 101.411 23.2704 101.625 23.3217C101.843 23.3635 102.056 23.3717 102.261 23.3465C102.467 23.3213 102.651 23.2552 102.815 23.1481C102.994 23.0366 103.14 22.872 103.253 22.6544L105.84 17.6877L107.387 18.4934L103.573 25.8157L102.026 25.0101L102.676 23.7613Z" fill="black"/>
<path d="M107.059 28.7724C106.555 28.4142 106.161 28.0105 105.878 27.5612C105.604 27.1181 105.436 26.6455 105.374 26.1435C105.32 25.6476 105.374 25.1298 105.535 24.5899C105.704 24.0563 105.981 23.5198 106.363 22.9806C106.746 22.4413 107.162 22.0036 107.61 21.6676C108.066 21.3376 108.537 21.1162 109.023 21.0032C109.518 20.8964 110.019 20.8993 110.528 21.0119C111.045 21.1307 111.552 21.3661 112.048 21.718C112.743 22.212 113.195 22.7551 113.403 23.3472C113.619 23.9455 113.665 24.5536 113.54 25.1714L112.005 24.9843C112.105 24.5847 112.094 24.2041 111.972 23.8424C111.858 23.4868 111.605 23.1701 111.214 22.8922C110.675 22.5094 110.14 22.3782 109.61 22.4988C109.085 22.6107 108.632 22.9362 108.249 23.4755L107.452 24.5975C107.076 25.128 106.918 25.6635 106.979 26.204C107.04 26.7444 107.349 27.2123 107.906 27.6074C108.323 27.9038 108.73 28.049 109.127 28.0429C109.532 28.043 109.931 27.9333 110.322 27.714L110.912 29.0942C110.361 29.4095 109.756 29.5619 109.096 29.5514C108.442 29.5322 107.763 29.2725 107.059 28.7724Z" fill="black"/>
<path d="M118.292 22.5046L119.563 23.6992L116.144 27.3362L116.202 27.391C116.41 27.294 116.627 27.2194 116.851 27.1672C117.091 27.1145 117.329 27.1035 117.564 27.1339C117.806 27.1567 118.049 27.2246 118.294 27.3378C118.539 27.451 118.786 27.6245 119.035 27.8583C119.641 28.4282 119.944 29.0867 119.945 29.8337C119.945 30.5807 119.602 31.3195 118.915 32.05L115.276 35.9202L114.006 34.7256L117.469 31.0419C118.368 30.0861 118.401 29.2172 117.57 28.4354C117.407 28.282 117.225 28.1555 117.026 28.056C116.834 27.9488 116.636 27.8794 116.431 27.848C116.226 27.8166 116.023 27.8304 115.821 27.8895C115.627 27.9558 115.449 28.0745 115.289 28.2454L111.453 32.3254L110.182 31.1308L118.292 22.5046Z" fill="black"/>
<path d="M127.76 64.4126C126.937 64.6381 126.235 64.4598 125.656 63.8776C125.076 63.2955 124.593 62.2997 124.207 60.8903C124.018 60.2011 123.905 59.6071 123.868 59.1085C123.823 58.6231 123.842 58.2086 123.925 57.8652C124.011 57.532 124.154 57.2661 124.354 57.0676C124.556 56.8793 124.807 56.7443 125.105 56.6625C125.537 56.5441 125.909 56.5694 126.221 56.7384C126.525 56.9204 126.795 57.2172 127.029 57.6285L127.183 57.5862C127.213 57.2906 127.298 57.0351 127.438 56.8197C127.581 56.6147 127.801 56.4713 128.1 56.3895C128.49 56.2824 128.82 56.3358 129.089 56.5497C129.368 56.7608 129.617 57.0632 129.835 57.4568L129.912 57.4356C130.006 56.8901 130.222 56.4272 130.561 56.047C130.899 55.6668 131.356 55.3977 131.932 55.2399C132.354 55.1243 132.756 55.0972 133.137 55.1585C133.529 55.2169 133.882 55.3526 134.194 55.5656C134.52 55.786 134.804 56.0733 135.044 56.4276C135.288 56.7921 135.478 57.2213 135.613 57.7151C135.765 58.2706 135.814 58.7935 135.761 59.2838L136.023 59.2119C136.332 59.1274 136.613 59.1444 136.867 59.2629C137.12 59.3814 137.296 59.6207 137.395 59.9807L137.792 61.4313L136.465 61.7949L135.958 59.9431L135.588 60.0446C135.447 60.4592 135.217 60.8099 134.897 61.0965C134.588 61.3803 134.191 61.5885 133.708 61.721C133.286 61.8366 132.879 61.8651 132.487 61.8066C132.105 61.7453 131.752 61.6045 131.426 61.3841C131.113 61.1712 130.835 60.8824 130.591 60.5179C130.361 60.1608 130.178 59.7353 130.042 59.2415C129.946 58.8917 129.887 58.5541 129.864 58.2286C129.762 58.0575 129.624 57.8963 129.45 57.7449C129.276 57.5936 129.08 57.5475 128.864 57.6067C128.617 57.6743 128.496 57.8349 128.499 58.0884C128.502 58.342 128.551 58.6436 128.647 58.9934L129.138 60.7834C129.431 61.8533 129.436 62.6812 129.155 63.2672C128.883 63.8504 128.418 64.2322 127.76 64.4126ZM127.22 62.8682C127.488 62.7949 127.674 62.6277 127.78 62.3665C127.875 62.1082 127.845 61.6962 127.69 61.1303L126.933 58.3682C126.641 58.028 126.289 57.9143 125.877 58.027C125.579 58.1088 125.356 58.3027 125.207 58.6088C125.062 58.9252 125.069 59.3765 125.23 59.9629L125.572 61.2129C125.747 61.8507 125.977 62.3074 126.263 62.5831C126.541 62.8718 126.86 62.9668 127.22 62.8682ZM131.2 58.9244C131.349 59.4696 131.588 59.8356 131.915 60.0223C132.243 60.209 132.623 60.2432 133.055 60.1248L133.471 60.0107C133.904 59.8923 134.213 59.6692 134.4 59.3416C134.586 59.0139 134.605 58.5775 134.456 58.0322C134.306 57.487 134.068 57.121 133.74 56.9343C133.412 56.7476 133.033 56.7134 132.6 56.8318L132.184 56.946C131.752 57.0644 131.442 57.2874 131.256 57.6151C131.069 57.9427 131.05 58.3792 131.2 58.9244Z" fill="black"/>
<path d="M128.58 67.7823C128.499 67.1583 128.526 66.5846 128.662 66.0611C128.797 65.5377 129.028 65.0826 129.354 64.6956C129.68 64.3087 130.09 63.9914 130.585 63.7437C131.09 63.4947 131.671 63.3272 132.326 63.2413C132.982 63.1554 133.586 63.1677 134.138 63.2782C134.692 63.3993 135.176 63.5996 135.589 63.879C136.014 64.1675 136.358 64.5366 136.621 64.9862C136.885 65.4358 137.054 65.9515 137.131 66.5332C137.205 67.1043 137.173 67.6357 137.033 68.1274C136.903 68.6177 136.68 69.0503 136.364 69.4253C136.047 69.8003 135.651 70.1049 135.176 70.3392C134.703 70.5842 134.165 70.7461 133.562 70.8251L132.911 70.9103L132.142 65.0404L131.873 65.0757C131.228 65.1602 130.725 65.4305 130.365 65.8864C130.016 66.3409 129.888 66.9225 129.981 67.6311C130.05 68.1599 130.22 68.5949 130.49 68.936C130.773 69.2862 131.12 69.5528 131.531 69.7356L130.72 70.939C130.209 70.7264 129.751 70.356 129.349 69.8278C128.947 69.3102 128.691 68.6284 128.58 67.7823ZM135.814 66.7057C135.774 66.399 135.683 66.1203 135.543 65.8698C135.404 65.6298 135.221 65.4278 134.996 65.2637C134.782 65.1089 134.536 64.9959 134.257 64.9247C133.979 64.8536 133.681 64.8388 133.364 64.8804L133.253 64.8949L133.791 69.0038L133.95 68.9831C134.595 68.8985 135.084 68.6463 135.416 68.2262C135.76 67.8154 135.893 67.3085 135.814 66.7057Z" fill="black"/>
<path d="M128.964 75.7543C128.969 75.029 129.164 74.497 129.551 74.1583C129.948 73.8197 130.456 73.6526 131.074 73.6569L135.826 73.6899L135.844 71.146L137.252 71.1557L137.239 72.9637C137.237 73.273 137.294 73.4921 137.411 73.6209C137.538 73.7498 137.761 73.8153 138.081 73.8176L140.145 73.8319L140.134 75.4639L137.222 75.4436L137.198 78.9636L135.79 78.9538L135.814 75.4339L130.374 75.3961L130.35 78.916L128.942 78.9062L128.964 75.7543Z" fill="black"/>
<path d="M135.499 93.5407C135.624 93.1103 135.798 92.8332 136.023 92.7094C136.244 92.5957 136.483 92.576 136.74 92.65L137.062 92.7433C137.319 92.8173 137.51 92.9615 137.637 93.1758C137.761 93.4003 137.762 93.7227 137.641 94.1428C137.516 94.5732 137.343 94.8452 137.122 94.9588C136.897 95.0827 136.657 95.1076 136.4 95.0336L136.078 94.9403C135.821 94.8662 135.631 94.7169 135.508 94.4924C135.381 94.2781 135.378 93.9609 135.499 93.5407ZM128.502 87.6712L127.72 90.3765L132.946 91.8868L133.728 89.1815L135.081 89.5725L133.815 93.9532L127.236 92.0519L126.503 94.5881L125.15 94.1972L127.149 87.2803L128.502 87.6712Z" fill="black"/>
<path d="M124.798 94.3033L132.341 97.6587L131.633 99.2522L130.346 98.6799L130.314 98.753C130.474 98.9177 130.616 99.0975 130.739 99.2925C130.868 99.5016 130.957 99.722 131.005 99.9538C131.064 100.19 131.08 100.442 131.054 100.711C131.028 100.979 130.945 101.27 130.807 101.582C130.469 102.342 129.947 102.845 129.242 103.092C128.537 103.339 127.726 103.258 126.81 102.851L121.956 100.692L122.665 99.0983L127.285 101.153C128.484 101.686 129.315 101.432 129.779 100.389C129.87 100.184 129.929 99.9713 129.958 99.7504C129.996 99.5338 129.996 99.3237 129.958 99.12C129.92 98.9164 129.84 98.729 129.718 98.5579C129.591 98.3965 129.42 98.2681 129.206 98.1727L124.089 95.8967L124.798 94.3033Z" fill="black"/>
<path d="M114.567 110.583C115.03 110.025 115.519 109.737 116.032 109.72C116.554 109.709 117.053 109.902 117.529 110.297L121.185 113.332L122.81 111.375L123.893 112.274L122.738 113.665C122.54 113.903 122.446 114.109 122.454 114.283C122.471 114.463 122.603 114.655 122.849 114.86L124.437 116.178L123.394 117.434L121.154 115.573L118.905 118.282L117.822 117.382L120.071 114.674L115.885 111.199L113.637 113.907L112.553 113.008L114.567 110.583Z" fill="black"/>
<path d="M109.275 115.438C109.723 115.028 110.197 114.732 110.696 114.551C111.187 114.376 111.684 114.312 112.188 114.357C112.684 114.409 113.179 114.571 113.673 114.842C114.166 115.114 114.636 115.493 115.083 115.981C115.529 116.469 115.865 116.971 116.091 117.487C116.317 118.003 116.434 118.511 116.442 119.009C116.442 119.515 116.333 120.005 116.116 120.478C115.89 120.959 115.553 121.404 115.105 121.815C114.656 122.225 114.186 122.517 113.695 122.692C113.196 122.873 112.699 122.938 112.203 122.885C111.699 122.84 111.2 122.682 110.707 122.411C110.213 122.139 109.743 121.76 109.297 121.272C108.85 120.784 108.514 120.282 108.288 119.766C108.062 119.25 107.949 118.739 107.949 118.233C107.941 117.734 108.05 117.245 108.275 116.764C108.493 116.29 108.826 115.849 109.275 115.438ZM110.203 116.454C109.731 116.886 109.486 117.369 109.47 117.905C109.453 118.455 109.703 119.014 110.222 119.58L111.064 120.501C111.582 121.068 112.112 121.364 112.655 121.388C113.197 121.427 113.704 121.231 114.176 120.799C114.649 120.367 114.893 119.876 114.91 119.326C114.927 118.791 114.676 118.239 114.158 117.673L113.315 116.752C112.797 116.185 112.267 115.882 111.725 115.842C111.183 115.818 110.675 116.022 110.203 116.454Z" fill="black"/>
<path d="M102.631 122.29L102.697 122.244C102.646 122.02 102.621 121.785 102.62 121.54C102.616 121.309 102.651 121.078 102.724 120.846C102.804 120.623 102.925 120.403 103.087 120.188C103.249 119.972 103.471 119.768 103.752 119.574C104.437 119.102 105.145 118.944 105.875 119.102C106.605 119.259 107.255 119.751 107.824 120.576L110.839 124.95L109.403 125.94L106.533 121.777C105.789 120.696 104.947 120.48 104.007 121.128C103.823 121.255 103.658 121.401 103.512 121.566C103.373 121.74 103.266 121.923 103.192 122.117C103.118 122.31 103.09 122.505 103.108 122.7C103.123 122.909 103.2 123.115 103.34 123.317L106.518 127.928L105.082 128.918L100.396 122.12L101.832 121.13L102.631 122.29Z" fill="black"/>
<path d="M96.1513 123.817C96.7039 123.539 97.2449 123.38 97.7743 123.34C98.2942 123.306 98.7905 123.378 99.2632 123.558C99.7264 123.743 100.159 124.033 100.561 124.428C100.953 124.827 101.298 125.323 101.595 125.913C101.892 126.504 102.085 127.076 102.172 127.629C102.25 128.187 102.225 128.707 102.097 129.189C101.96 129.676 101.723 130.118 101.385 130.515C101.038 130.916 100.593 131.254 100.05 131.527C99.2876 131.911 98.5963 132.056 97.9759 131.962C97.346 131.873 96.7873 131.629 96.2996 131.229L97.1836 129.961C97.4896 130.237 97.8311 130.405 98.2081 130.466C98.5756 130.532 98.9737 130.457 99.4025 130.241C99.9932 129.944 100.359 129.532 100.501 129.007C100.648 128.492 100.572 127.939 100.275 127.348L99.6564 126.119C99.3638 125.538 98.9645 125.147 98.4583 124.948C97.9521 124.749 97.3942 124.803 96.7844 125.11C96.327 125.34 96.0082 125.632 95.8278 125.986C95.638 126.344 95.5484 126.747 95.5591 127.196L94.0633 127.071C94.0426 126.437 94.1912 125.83 94.5093 125.252C94.8322 124.684 95.3795 124.205 96.1513 123.817Z" fill="black"/>
<path d="M96.4316 136.677L94.7812 137.24L93.1678 132.516L93.0921 132.542C93.0803 132.772 93.0449 132.998 92.9858 133.221C92.9201 133.458 92.8188 133.672 92.6819 133.866C92.5485 134.069 92.3744 134.253 92.1597 134.416C91.945 134.579 91.6762 134.716 91.3532 134.827C90.5658 135.096 89.842 135.055 89.1816 134.706C88.5213 134.357 88.0291 133.708 87.7051 132.759L85.9883 127.732L87.6387 127.168L89.2727 131.953C89.6967 133.194 90.4488 133.631 91.5289 133.262C91.7409 133.19 91.9375 133.089 92.1187 132.959C92.3033 132.84 92.4574 132.697 92.581 132.531C92.7046 132.364 92.7876 132.178 92.8299 131.972C92.8621 131.77 92.8403 131.557 92.7645 131.335L90.9547 126.036L92.6051 125.472L96.4316 136.677Z" fill="black"/>
</svg>
