<svg width="42" height="41" viewBox="0 0 42 41" fill="none" xmlns="http://www.w3.org/2000/svg">
<path fill-rule="evenodd" clip-rule="evenodd" d="M38.2575 19.4819C36.9531 24.78 37.0385 29.882 36.8822 35.256C36.8518 36.3055 37.6771 37.178 38.7246 37.2096C39.7727 37.2412 40.6474 36.413 40.6784 35.3635C40.8265 30.2677 40.7068 25.4185 41.9448 20.386C42.1955 19.3681 41.572 18.3376 40.5543 18.091C39.5372 17.8381 38.5075 18.464 38.2575 19.4819Z" fill="black"/>
<path fill-rule="evenodd" clip-rule="evenodd" d="M27.1749 9.21449C18.3256 17.2944 9.98762 27.6882 4.15979 38.1832C3.65156 39.0999 3.98259 40.257 4.89905 40.7627C5.8155 41.2685 6.97245 40.9397 7.48067 40.023C13.1161 29.8757 21.18 19.8233 29.7369 12.0152C30.5103 11.3071 30.5641 10.1059 29.8572 9.33458C29.1502 8.56326 27.9483 8.5064 27.1749 9.21449Z" fill="black"/>
<path fill-rule="evenodd" clip-rule="evenodd" d="M24.9333 0.388548C16.8396 -0.945455 8.49725 1.33054 1.13778 4.54859C0.177657 4.97218 -0.260329 6.0912 0.15929 7.04586C0.579542 8.00685 1.70044 8.44312 2.66057 8.02585C9.36308 5.0923 16.9434 2.91741 24.3149 4.13129C25.3491 4.302 26.3269 3.60024 26.4972 2.56971C26.6681 1.53917 25.9668 0.55925 24.9333 0.388548Z" fill="black"/>
</svg>
