<svg width="1680" height="1608" viewBox="0 0 1680 1608" fill="none" xmlns="http://www.w3.org/2000/svg">
<g opacity="0.3">
<path opacity="0.91" d="M831.042 32.3085C844.782 30.771 858.587 29.6025 872.457 28.8337C886.327 28.1572 900.245 27.9112 914.244 28.0957C928.243 28.434 942.306 29.2488 956.402 30.5403C970.53 32.0163 984.674 33.969 998.866 36.4136C1013.03 39.0427 1027.2 42.1484 1041.35 45.7308C1055.46 49.4823 1069.51 53.6797 1083.44 58.3075C1097.26 63.0738 1110.94 68.2398 1124.37 73.7748C1137.63 79.402 1150.56 85.3675 1163.14 91.6405C1175.43 97.9442 1187.25 104.525 1198.55 111.336C1209.46 118.132 1219.76 125.127 1229.4 132.307C1238.62 139.411 1247.15 146.668 1254.96 154.047C1262.37 161.32 1269.14 168.7 1275.26 176.157C1283.9 187.196 1299.4 209.459 1307.03 220.652C1312.65 227.986 1318.63 235.412 1325.12 242.915C1332.55 250.279 1340.75 257.736 1349.87 265.301C1360.14 272.758 1371.43 280.322 1383.68 288.025C1397 295.636 1411.11 303.385 1425.87 311.303C1441.13 319.144 1456.52 327.17 1471.76 335.365C1486.61 343.529 1500.63 351.877 1513.47 360.441C1524.98 368.99 1534.75 377.738 1542.53 386.702C1548.44 395.665 1552.17 404.859 1553.77 414.269C1553.73 423.694 1551.96 433.334 1548.79 443.189C1545.06 453.075 1540.87 463.177 1536.72 473.478C1533.55 483.81 1531.47 494.357 1530.92 505.089C1532.61 515.851 1536.43 526.814 1542.48 537.93C1550.94 549.092 1561.35 560.423 1573.34 571.909C1586.56 583.409 1600.22 595.079 1613.6 606.871C1626.23 618.679 1637.16 630.626 1645.77 642.695C1651.84 654.78 1654.76 666.957 1654.36 679.257C1651.08 691.557 1644.83 703.949 1636.1 716.433C1625.92 728.918 1614.7 741.479 1603.27 754.133C1592.87 766.771 1583.99 779.348 1577.26 791.832C1573.34 804.332 1572.14 816.74 1573.63 829.086C1577.89 841.416 1584.14 853.686 1591.79 865.878C1600.53 878.086 1609.23 890.217 1617.14 902.301C1623.97 914.401 1628.73 926.44 1630.98 938.432C1630.77 950.486 1627.62 962.479 1621.58 974.456C1613.15 986.495 1602.4 998.518 1589.77 1010.53C1576.03 1022.63 1561.52 1034.73 1546.86 1046.86C1532.71 1059.06 1519.42 1071.32 1507.39 1083.62C1497.09 1096.01 1488.54 1108.46 1481.77 1120.95C1477.01 1133.57 1473.84 1146.24 1472.05 1158.96C1471.65 1171.78 1471.97 1184.65 1472.63 1197.53C1473.63 1210.51 1474.25 1223.5 1474.12 1236.48C1473.34 1249.5 1471.29 1262.48 1467.82 1275.34C1463.1 1288.21 1456.79 1300.94 1448.91 1313.49C1439.72 1325.91 1429.1 1338.1 1417.22 1349.99C1404.38 1361.67 1390.61 1372.96 1376.16 1383.83C1361.25 1394.38 1346.01 1404.4 1330.66 1413.86C1315.35 1422.9 1300.2 1431.31 1285.35 1439.01C1270.88 1446.22 1256.87 1452.71 1243.32 1458.41C1230.32 1463.61 1217.83 1468.01 1205.8 1471.61C1194.33 1474.73 1183.26 1477.08 1172.5 1478.69C1162.2 1479.91 1152.13 1480.45 1142.18 1480.38C1132.54 1480.09 1122.92 1479.31 1113.25 1478.11C1103.75 1476.93 1094.11 1475.48 1084.28 1473.87C1074.51 1472.51 1064.5 1471.18 1054.2 1469.95C1043.9 1469.22 1033.29 1468.79 1022.38 1468.68C1011.41 1469.31 1000.13 1470.41 988.533 1472.01C976.891 1474.45 964.927 1477.46 952.672 1481.03C940.385 1485.44 927.807 1490.38 914.954 1495.78C902.086 1501.88 888.959 1508.32 875.59 1515.01C862.204 1522.11 848.609 1529.26 834.788 1536.3C820.967 1543.41 807.097 1550.08 793.211 1556.2C779.341 1562.01 765.456 1567.02 751.57 1571.16C737.684 1574.68 723.814 1577.17 709.977 1578.58C696.14 1579.2 682.351 1578.65 668.594 1576.96C654.886 1574.42 641.226 1570.74 627.647 1565.99C614.116 1560.47 600.683 1553.97 587.362 1546.54C574.106 1538.55 560.995 1529.8 548.062 1520.39C535.226 1510.64 522.567 1500.4 510.134 1489.81C497.831 1479.09 485.769 1468.19 473.966 1457.17C462.309 1446.28 450.942 1435.43 439.865 1424.67C428.934 1414.23 418.294 1403.99 407.96 1393.98C397.756 1384.41 387.826 1375.14 378.187 1366.16C368.596 1357.68 359.247 1349.51 350.124 1341.63C340.986 1334.22 332.024 1327.08 323.208 1320.18C314.296 1313.7 305.496 1307.4 296.777 1301.22C287.913 1295.39 279.129 1289.63 270.394 1283.89C261.514 1278.39 252.698 1272.84 243.979 1267.18C235.147 1261.68 226.46 1256.02 217.935 1250.14C209.377 1244.35 201.062 1238.31 192.989 1231.97C184.98 1225.64 177.294 1219 169.916 1212.03C162.634 1205 155.691 1197.62 149.103 1189.89C142.58 1182.08 136.364 1173.9 130.438 1165.35C124.512 1156.73 118.845 1147.73 113.387 1138.4C107.881 1128.96 102.569 1119.18 97.451 1109.09C92.268 1098.92 87.2949 1088.43 82.5479 1077.67C77.8009 1066.81 73.3445 1055.7 69.2272 1044.34C65.1907 1032.91 61.5577 1021.26 58.3446 1009.39C55.2607 997.488 52.6289 985.372 50.4168 973.088C48.2855 960.772 46.5417 948.288 45.137 935.65C43.6838 922.996 42.4728 910.204 41.4718 897.289C40.3254 884.359 39.3243 871.321 38.4685 858.16C37.4352 844.999 36.5794 831.746 35.9659 818.385C35.2877 805.039 34.9325 791.74 34.9809 778.517C35.1263 765.295 35.7398 752.149 36.8539 739.065C38.1456 725.981 39.9379 712.974 42.2145 700.044C44.6041 687.113 47.4136 674.244 50.5783 661.452C53.7591 648.645 57.1982 635.915 60.8635 623.246C64.4479 610.577 68.1939 597.969 72.1336 585.423C75.9602 572.862 79.9807 560.377 84.2271 547.954C88.409 535.516 92.8816 523.139 97.6447 510.855C102.44 498.539 107.575 486.285 113.064 474.124C118.619 461.947 124.528 449.862 130.745 437.87C137.026 425.877 143.581 413.977 150.395 402.2C157.16 390.422 164.135 378.783 171.288 367.283C178.344 355.813 185.529 344.497 192.859 333.366C200.093 322.28 207.472 311.38 215.012 300.709C222.488 290.116 230.174 279.753 238.085 269.637C246.029 259.643 254.248 249.91 262.773 240.47C271.427 231.168 280.405 222.174 289.737 213.518C299.247 205 309.097 196.836 319.301 189.026C329.667 181.369 340.356 174.081 351.352 167.178C362.46 160.413 373.827 154.017 385.42 148.005C397.078 142.117 408.897 136.597 420.861 131.431C432.793 126.373 444.855 121.652 456.981 117.255C469.042 112.919 481.152 108.891 493.326 105.14C505.371 101.388 517.465 97.8981 529.59 94.6386C541.587 91.333 553.648 88.2272 565.742 85.306C577.723 82.2771 589.784 79.4174 601.894 76.696C613.923 73.8209 626.048 71.0688 638.271 68.4396C650.413 65.626 662.684 62.9354 675.085 60.337C687.437 57.5695 699.934 54.9097 712.593 52.3728C725.219 49.6822 738.007 47.1299 750.988 44.7468C763.938 42.2407 777.081 39.9344 790.418 37.8588C803.738 35.7217 817.269 33.8613 831.026 32.3085" stroke="url(#paint0_linear_313_137)" stroke-width="2.5" stroke-linecap="round" stroke-dasharray="19 2"/>
<path opacity="0.36" d="M885.67 61.239C899.178 60.4102 912.68 59.9506 926.174 59.8756C939.679 59.8783 953.159 60.2954 966.596 61.1413C980.04 62.1263 993.44 63.5708 1006.8 65.4749C1020.11 67.5614 1033.36 70.1065 1046.5 73.1075C1059.6 76.3062 1072.55 79.9744 1085.35 84.0652C1098.04 88.35 1110.53 93.0547 1122.75 98.1602C1134.83 103.412 1146.6 109.046 1157.99 115.014C1169.17 121.094 1179.94 127.473 1190.23 134.149C1200.25 140.856 1209.75 147.812 1218.71 154.983C1227.35 162.137 1235.44 169.475 1242.93 176.98C1250.16 184.408 1256.84 191.96 1263 199.605C1269.03 207.182 1274.66 214.844 1279.94 222.579C1285.3 230.212 1290.54 237.913 1295.75 245.706C1301.34 253.366 1307.15 261.116 1313.3 268.961C1320.16 276.693 1327.6 284.533 1335.72 292.489C1344.77 300.359 1354.64 308.351 1365.33 316.482C1376.97 324.543 1389.37 332.739 1402.44 341.095C1416.14 349.365 1430.21 357.793 1444.42 366.352C1458.64 374.835 1472.49 383.451 1485.7 392.185C1498.12 400.813 1509.34 409.528 1519.09 418.362C1527.39 427.051 1533.86 435.839 1538.39 444.703C1541.28 453.459 1542.29 462.309 1541.52 471.246C1539.62 480.118 1536.47 489.136 1532.48 498.292C1528.45 507.461 1524.41 516.814 1520.85 526.41C1518.57 536.093 1517.6 546.034 1518.25 556.251C1521.07 566.621 1525.83 577.268 1532.57 588.227C1541.35 599.301 1551.67 610.629 1563.11 622.191C1575.38 633.814 1587.71 645.594 1599.44 657.496C1610.21 669.358 1619.19 681.259 1625.86 693.169C1630.12 704.943 1631.43 716.676 1629.69 728.361C1625.37 739.916 1618.41 751.431 1609.22 762.929C1598.8 774.373 1587.44 785.858 1575.89 797.439C1565.3 809.074 1556.06 820.738 1548.7 832.477C1543.89 844.344 1541.52 856.301 1541.61 868.366C1544.27 880.574 1548.85 892.845 1554.85 905.163C1562.04 917.549 1569.43 929.93 1576.35 942.239C1582.56 954.539 1587.11 966.715 1589.57 978.759C1589.93 990.731 1587.68 1002.54 1582.75 1014.19C1575.55 1025.76 1565.98 1037.22 1554.42 1048.57C1541.46 1059.92 1527.39 1071.22 1512.7 1082.52C1498.02 1093.9 1483.69 1105.32 1470.12 1116.82C1457.81 1128.47 1446.82 1140.23 1437.35 1152.12C1429.67 1164.19 1423.55 1176.37 1418.86 1188.64C1415.69 1201.06 1413.56 1213.56 1412.17 1226.06C1411.56 1238.66 1411.04 1251.21 1410.35 1263.7C1409.51 1276.15 1407.94 1288.47 1405.4 1300.58C1402.05 1312.56 1397.41 1324.28 1391.45 1335.7C1384.37 1346.89 1375.92 1357.7 1366.19 1368.09C1355.44 1378.19 1343.57 1387.8 1330.78 1396.88C1317.29 1405.61 1303.15 1413.76 1288.56 1421.31C1273.69 1428.44 1258.65 1434.93 1243.58 1440.75C1228.61 1446.12 1213.82 1450.8 1199.3 1454.78C1185.12 1458.32 1171.31 1461.17 1157.9 1463.33C1144.93 1465.1 1132.35 1466.22 1120.18 1466.71C1108.44 1466.93 1097.02 1466.6 1085.9 1465.76C1075.1 1464.82 1064.51 1463.48 1054.05 1461.83C1043.83 1460.26 1033.63 1458.52 1023.43 1456.67C1013.37 1455.13 1003.19 1453.64 992.89 1452.27C982.622 1451.44 972.161 1450.85 961.47 1450.59C950.769 1451 939.815 1451.85 928.575 1453.15C917.303 1455.23 905.725 1457.78 893.875 1460.83C881.964 1464.61 869.749 1468.84 857.284 1473.47C844.748 1478.71 831.952 1484.23 818.919 1489.94C805.846 1496.01 792.547 1502.09 779.029 1508.05C765.523 1514.07 751.979 1519.67 738.45 1524.75C724.939 1529.55 711.456 1533.63 698.007 1536.89C684.623 1539.64 671.299 1541.42 658.083 1542.22C644.929 1542.3 631.888 1541.32 618.977 1539.28C606.163 1536.49 593.494 1532.63 581.001 1527.76C568.617 1522.18 556.405 1515.66 544.406 1508.29C532.541 1500.34 520.883 1491.65 509.459 1482.32C498.156 1472.6 487.109 1462.4 476.33 1451.78C465.674 1441.02 455.276 1429.99 445.164 1418.8C435.161 1407.67 425.419 1396.52 415.966 1385.37C406.58 1374.48 397.461 1363.7 388.574 1353.1C379.713 1342.85 371.081 1332.83 362.627 1323.07C354.148 1313.72 345.813 1304.65 337.625 1295.83C329.312 1287.44 321.113 1279.31 312.965 1271.4C304.663 1263.9 296.414 1256.58 288.204 1249.41C279.811 1242.59 271.445 1235.85 263.139 1229.19C254.671 1222.79 246.285 1216.39 238.012 1209.97C229.632 1203.72 221.419 1197.39 213.391 1190.95C205.373 1184.6 197.607 1178.1 190.143 1171.41C182.742 1164.77 175.678 1157.91 168.953 1150.79C162.34 1143.68 156.117 1136.3 150.218 1128.63C144.403 1120.93 138.913 1112.94 133.749 1104.64C128.604 1096.3 123.722 1087.63 119.1 1078.67C114.435 1069.63 109.983 1060.27 105.775 1050.64C101.506 1040.95 97.4659 1030.96 93.6684 1020.7C89.8595 1010.37 86.3407 999.791 83.1273 988.984C79.966 978.118 77.1745 967.026 74.7509 955.74C72.4108 944.411 70.4546 932.889 68.8977 921.189C67.4061 909.477 66.2493 897.584 65.4253 885.54C64.5871 873.464 64.0162 861.249 63.6966 848.895C63.2642 836.534 63.0669 824.032 63.0546 811.418C62.9464 798.782 63.0716 786.037 63.446 773.182C63.7883 760.325 64.4671 747.518 65.4977 734.777C66.5767 722.039 68.0719 709.371 69.9994 696.772C72.0236 684.179 74.4802 671.657 77.3521 659.22C80.2884 646.786 83.5936 634.403 87.2164 622.116C90.8562 609.814 94.7502 597.588 98.8821 585.437C102.967 573.267 107.258 561.156 111.754 549.133C116.186 537.091 120.841 525.123 125.732 513.246C130.608 501.352 135.771 489.536 141.219 477.812C146.699 466.091 152.513 454.465 158.643 442.95C164.855 431.439 171.366 420.037 178.195 408.746C185.037 397.486 192.147 386.349 199.475 375.347C206.768 364.39 214.247 353.566 221.877 342.905C229.391 332.299 237.04 321.869 244.79 311.631C252.406 301.462 260.139 291.499 267.97 281.773C275.715 272.135 283.607 262.736 291.676 253.624C299.705 244.618 307.959 235.916 316.452 227.521C325.018 219.254 333.87 211.325 343.009 203.737C352.284 196.294 361.893 189.209 371.819 182.496C381.897 175.93 392.308 169.738 403.02 163.916C413.868 158.24 425 152.935 436.384 148.013C447.875 143.19 459.571 138.717 471.456 134.579C483.384 130.535 495.47 126.807 507.65 123.394C519.846 119.996 532.103 116.895 544.443 114.044C556.735 111.176 569.077 108.541 581.469 106.141C593.771 103.642 606.125 101.332 618.501 99.1919C630.805 96.9247 643.147 94.8138 655.53 92.8283C667.841 90.6848 680.227 88.6533 692.655 86.732C705.044 84.6391 717.493 82.6265 730.048 80.7431C742.549 78.6719 755.157 76.7144 767.87 74.8861C780.577 72.888 793.387 71.0497 806.334 69.373C819.27 67.588 832.34 65.9954 845.558 64.642C858.78 63.2118 872.13 62.066 885.654 61.2381" stroke="url(#paint1_linear_313_137)" stroke-width="2.5" stroke-linecap="round" stroke-dasharray="13 16"/>
<path opacity="0.88" d="M932.241 93.0791C945.38 92.9323 958.428 93.1312 971.383 93.6759C984.311 94.3104 997.142 95.3364 1009.83 96.7639C1022.49 98.3288 1034.99 100.309 1047.34 102.72C1059.62 105.31 1071.72 108.313 1083.6 111.771C1095.39 115.389 1106.92 119.443 1118.17 123.913C1129.29 128.539 1140.09 133.564 1150.54 138.967C1160.81 144.504 1170.7 150.386 1180.16 156.59C1189.44 162.898 1198.24 169.494 1206.58 176.346C1214.71 183.238 1222.37 190.369 1229.54 197.694C1236.56 205.034 1243.11 212.536 1249.25 220.179C1255.31 227.797 1261.05 235.549 1266.49 243.423C1272.04 251.231 1277.43 259.145 1282.78 267.178C1288.45 275.14 1294.25 283.208 1300.27 291.379C1306.86 299.505 1313.85 307.739 1321.35 316.107C1329.6 324.421 1338.47 332.881 1347.98 341.492C1358.32 350.04 1369.31 358.739 1380.89 367.598C1393.1 376.388 1405.74 385.32 1418.65 394.359C1431.78 403.33 1444.82 412.383 1457.55 421.511C1469.88 430.516 1481.46 439.544 1492.03 448.598C1501.56 457.459 1509.71 466.318 1516.29 475.141C1523.16 488.036 1526.41 513.437 1523.41 526.01C1520.29 534.314 1516.45 542.722 1512.26 551.26C1508.43 559.84 1505.01 568.652 1502.37 577.737C1501.17 586.984 1501.36 596.573 1503.17 606.515C1506.98 616.697 1512.51 627.244 1519.7 638.162C1528.54 649.268 1538.51 660.669 1549.19 672.322C1560.32 684.025 1571.19 695.869 1581.23 707.774C1590.15 719.554 1597.23 731.281 1602.07 742.895C1604.62 754.268 1604.47 765.475 1601.56 776.495C1596.35 787.273 1588.77 797.908 1579.25 808.463C1568.67 818.899 1557.26 829.366 1545.67 839.936C1534.95 850.604 1525.4 861.389 1517.54 872.347C1511.92 883.559 1508.5 895.002 1507.27 906.677C1508.44 918.621 1511.41 930.753 1515.77 943.041C1521.41 955.473 1527.41 967.945 1533.21 980.38C1538.63 992.803 1542.76 1005.08 1545.2 1017.17C1545.93 1029.09 1544.38 1040.78 1540.43 1052.19C1534.37 1063.42 1526.03 1074.4 1515.64 1085.17C1503.71 1095.82 1490.41 1106.35 1476.14 1116.78C1461.48 1127.23 1446.7 1137.69 1432.21 1148.2C1418.47 1158.85 1405.67 1169.63 1393.99 1180.53C1383.8 1191.64 1374.95 1202.93 1367.49 1214.32C1361.53 1225.92 1356.74 1237.62 1352.93 1249.36C1350.17 1261.2 1347.93 1273.02 1345.95 1284.75C1344.29 1296.45 1342.37 1307.97 1340 1319.24C1337.25 1330.34 1333.67 1341.12 1329.1 1351.49C1323.75 1361.58 1317.25 1371.21 1309.62 1380.32C1301.09 1389.07 1291.46 1397.24 1280.81 1404.84C1269.4 1411.99 1257.16 1418.54 1244.23 1424.42C1230.82 1429.88 1216.98 1434.67 1202.83 1438.79C1188.5 1442.5 1174.07 1445.54 1159.66 1447.93C1145.35 1449.92 1131.21 1451.31 1117.3 1452.08C1103.63 1452.54 1090.28 1452.46 1077.23 1451.84C1064.5 1451.06 1052.09 1449.83 1039.98 1448.21C1028.17 1446.57 1016.61 1444.63 1005.26 1442.47C994.164 1440.48 983.208 1438.36 972.336 1436.23C961.616 1434.43 950.918 1432.73 940.202 1431.17C929.552 1430.13 918.804 1429.35 907.936 1428.89C897.07 1429.06 886.027 1429.61 874.802 1430.58C863.523 1432.25 852.013 1434.33 840.289 1436.83C828.497 1440.01 816.464 1443.56 804.212 1447.43C791.876 1451.85 779.32 1456.47 766.566 1461.25C753.772 1466.34 740.788 1471.4 727.64 1476.33C714.485 1481.32 701.364 1485.91 688.303 1490.01C675.27 1493.89 662.319 1497.11 649.493 1499.58C636.741 1501.58 624.128 1502.73 611.693 1502.97C599.365 1502.61 587.241 1501.26 575.318 1498.94C563.545 1495.94 551.989 1491.98 540.696 1487.09C529.531 1481.54 518.655 1475.12 508.028 1467.87C497.563 1460.09 487.383 1451.59 477.477 1442.46C467.715 1432.95 458.227 1422.94 449.021 1412.49C439.936 1401.85 431.115 1390.92 422.565 1379.77C414.079 1368.63 405.818 1357.37 397.822 1346.08C389.806 1334.95 382.012 1323.87 374.384 1312.88C366.704 1302.19 359.154 1291.63 351.739 1281.29C344.188 1271.26 336.723 1261.46 329.311 1251.87C321.724 1242.66 314.176 1233.65 306.634 1224.86C298.886 1216.42 291.149 1208.15 283.424 1200.05C275.512 1192.27 267.619 1184.6 259.779 1177.03C251.791 1169.73 243.897 1162.47 236.128 1155.25C228.3 1148.23 220.656 1141.18 213.244 1134.09C205.845 1127.16 198.75 1120.14 191.944 1113.01C185.257 1105.97 178.896 1098.8 172.914 1091.45C167.055 1084.17 161.547 1076.67 156.404 1068.99C151.357 1061.31 146.649 1053.4 142.277 1045.26C137.908 1037.1 133.833 1028.67 130.015 1020C126.17 1011.29 122.554 1002.3 119.179 993.084C115.747 983.796 112.541 974.254 109.578 964.461C106.587 954.634 103.87 944.559 101.441 934.269C99.0167 923.933 96.9257 913.402 95.1698 902.661C93.4657 891.895 92.1089 880.951 91.1153 869.832C90.1717 858.702 89.5593 847.394 89.2744 835.936C89.0073 824.465 89.0176 812.854 89.3233 801.091C89.5809 789.323 90.1159 777.416 90.9104 765.383C91.6407 753.342 92.6625 741.18 93.9721 728.927C95.2516 716.654 96.8658 704.435 98.7989 692.267C100.764 680.102 103.08 667.993 105.761 655.955C108.504 643.94 111.582 631.979 115.025 620.089C118.483 608.216 122.273 596.412 126.33 584.684C130.387 572.957 134.697 561.288 139.24 549.708C143.75 538.124 148.482 526.596 153.444 515.172C158.359 503.742 163.54 492.389 168.954 481.123C174.398 469.877 180.106 458.737 186.126 447.695C192.193 436.673 198.587 425.766 205.273 415C212.036 404.258 219.109 393.644 226.44 383.182C233.817 372.742 241.433 362.467 249.256 352.356C257.058 342.288 265.002 332.391 273.086 322.665C281.065 313.004 289.134 303.539 297.274 294.284C305.276 285.09 313.332 276.119 321.472 267.39C329.454 258.752 337.55 250.374 345.726 242.268C353.839 234.279 362.093 226.6 370.52 219.219C378.947 211.977 387.592 205.07 396.47 198.514C405.413 192.089 414.637 186.021 424.138 180.34C433.77 174.783 443.698 169.599 453.902 164.802C464.255 160.115 474.887 155.8 485.784 151.84C496.814 147.988 508.077 144.487 519.545 141.303C531.133 138.195 542.879 135.384 554.798 132.885C566.766 130.378 578.863 128.147 591.06 126.16C603.279 124.129 615.583 122.325 627.944 120.713C640.299 119.022 652.716 117.494 665.161 116.123C677.592 114.611 690.055 113.227 702.549 111.986C715.033 110.573 727.536 109.256 740.091 108.052C752.621 106.66 765.203 105.367 777.82 104.186C790.427 102.818 803.102 101.566 815.826 100.444C828.538 99.1499 841.327 98.0193 854.196 97.037C867.044 95.9594 879.984 95.0625 892.991 94.4054C905.99 93.6854 919.07 93.2223 932.225 93.0773" stroke="url(#paint2_linear_313_137)" stroke-width="2.5" stroke-linecap="round" stroke-dasharray="21 26"/>
<path opacity="0.93" d="M969.042 126.49C981.662 126.977 994.11 127.764 1006.37 128.876C1018.59 130.062 1030.62 131.62 1042.41 133.53C1054.17 135.557 1065.69 137.982 1076.93 140.78C1088.11 143.742 1099 147.105 1109.56 150.851C1120.05 154.771 1130.2 159.072 1139.98 163.747C1149.66 168.576 1158.93 173.775 1167.84 179.316C1176.58 184.986 1184.94 190.981 1192.86 197.262C1200.67 203.663 1208.05 210.335 1215.02 217.251C1221.91 224.231 1228.42 231.427 1234.58 238.844C1240.71 246.289 1246.56 253.92 1252.19 261.731C1257.91 269.543 1263.5 277.52 1269.03 285.644C1274.84 293.768 1280.7 302.041 1286.72 310.465C1293.19 318.889 1299.95 327.456 1307.06 336.175C1314.78 344.903 1322.96 353.773 1331.63 362.82C1340.96 371.839 1350.8 381.022 1361.14 390.367C1372.06 399.671 1383.35 409.115 1394.94 418.674C1406.79 428.167 1418.71 437.735 1430.52 447.361C1442.16 456.85 1453.34 466.354 1463.84 475.837C1473.67 485.112 1482.49 494.309 1490.1 503.426C1499.16 516.615 1508.07 541.991 1507.93 554.197C1505.14 566.029 1494.76 589.613 1488.86 601.668C1485.67 609.856 1483.15 618.33 1481.58 627.138C1481.53 636.186 1482.85 645.642 1485.68 655.523C1490.27 665.704 1496.3 676.303 1503.66 687.282C1512.27 698.489 1521.65 709.983 1531.36 721.706C1541.22 733.437 1550.53 745.264 1558.85 757.063C1565.95 768.653 1571.22 780.105 1574.33 791.332C1575.35 802.202 1573.88 812.808 1569.91 823.145C1563.95 833.126 1555.9 842.91 1546.12 852.542C1535.46 862.022 1524.07 871.52 1512.49 881.127C1501.71 890.885 1491.95 900.799 1483.65 910.978C1477.35 921.496 1472.97 932.357 1470.56 943.536C1470.32 955.098 1471.75 966.962 1474.54 979.054C1478.61 991.366 1483.21 1003.78 1487.8 1016.21C1492.28 1028.64 1495.84 1040.92 1498.06 1052.98C1498.93 1064.86 1497.87 1076.41 1494.72 1087.63C1489.67 1098.55 1482.5 1109.14 1473.35 1119.39C1462.61 1129.44 1450.33 1139.22 1436.86 1148.82C1422.68 1158.33 1408.01 1167.75 1393.19 1177.17C1378.7 1186.66 1364.71 1196.23 1351.46 1205.9C1339.31 1215.78 1328.25 1225.79 1318.36 1235.96C1309.84 1246.34 1302.48 1256.83 1296.17 1267.41C1291.05 1278.13 1286.71 1288.85 1282.94 1299.51C1279.84 1310.18 1276.91 1320.68 1273.96 1330.93C1271.08 1341.05 1267.78 1350.8 1263.93 1360.14C1259.67 1369.21 1254.62 1377.77 1248.7 1385.77C1242.12 1393.4 1234.59 1400.42 1226.15 1406.78C1217.02 1412.71 1207.03 1417.97 1196.29 1422.56C1184.98 1426.68 1173.06 1430.14 1160.67 1432.92C1147.89 1435.28 1134.83 1437 1121.54 1438.07C1108.11 1438.82 1094.64 1438.96 1081.18 1438.55C1067.77 1437.92 1054.48 1436.78 1041.36 1435.2C1028.4 1433.51 1015.64 1431.47 1003.09 1429.1C990.751 1426.79 978.61 1424.28 966.68 1421.59C954.907 1419.13 943.291 1416.61 931.816 1414.13C920.455 1412 909.171 1409.99 897.95 1408.16C886.75 1406.83 875.553 1405.76 864.314 1404.99C853.061 1404.83 841.726 1405.01 830.289 1405.57C818.767 1406.75 807.124 1408.32 795.349 1410.24C783.477 1412.77 771.446 1415.62 759.254 1418.71C747.003 1422.3 734.588 1426.07 722.057 1429.92C709.454 1434.08 696.749 1438.16 683.967 1442.13C671.18 1446.13 658.474 1449.78 645.917 1452.99C633.397 1456 621.04 1458.4 608.869 1460.16C596.79 1461.52 584.942 1462.08 573.338 1461.86C561.872 1461.08 550.665 1459.45 539.755 1456.92C528.991 1453.8 518.537 1449.8 508.409 1444.95C498.439 1439.5 488.768 1433.26 479.454 1426.24C470.269 1418.71 461.407 1410.51 452.855 1401.7C444.424 1392.51 436.303 1382.8 428.459 1372.66C420.69 1362.3 413.196 1351.61 405.931 1340.66C398.695 1329.64 391.65 1318.48 384.805 1307.22C377.914 1296.02 371.156 1284.81 364.525 1273.63C357.759 1262.64 351.093 1251.73 344.468 1240.96C337.683 1230.42 330.918 1220.04 324.153 1209.83C317.186 1199.92 310.203 1190.18 303.206 1180.6C296.002 1171.33 288.787 1162.22 281.59 1153.27C274.207 1144.61 266.868 1136.07 259.588 1127.65C252.194 1119.5 244.931 1111.42 237.819 1103.42C230.665 1095.65 223.735 1087.89 217.063 1080.17C210.44 1072.63 204.132 1065.06 198.141 1057.47C192.256 1050 186.748 1042.46 181.595 1034.85C174.226 1023.5 161.41 1000.24 155.885 988.227C150.67 976.05 141.519 950.648 137.519 937.413C134.833 928.461 132.38 919.314 130.15 909.94C127.879 900.527 125.843 890.904 124.075 881.077C122.278 871.23 120.781 861.184 119.594 850.971C118.428 840.731 117.591 830.313 117.093 819.749C116.632 809.16 116.507 798.441 116.74 787.564C116.973 776.686 117.545 765.664 118.452 754.511C119.344 743.355 120.553 732.082 122.08 720.69C123.593 709.281 125.418 697.784 127.561 686.169C129.703 674.554 132.163 662.993 134.91 651.481C137.675 639.956 140.755 628.501 144.134 617.112C147.527 605.74 151.205 594.418 155.183 583.161C159.142 571.917 163.366 560.75 167.841 549.64C172.281 538.54 176.954 527.512 181.842 516.566C186.71 505.633 191.795 494.767 197.108 484.003C202.417 473.254 207.989 462.596 213.803 452.042C219.66 441.527 225.807 431.123 232.239 420.861C238.763 410.631 245.576 400.527 252.699 390.602C259.899 380.705 267.411 370.985 275.172 361.418C282.986 351.922 291.032 342.59 299.272 333.447C307.484 324.363 315.859 315.461 324.343 306.766C332.72 298.116 341.172 289.68 349.682 281.458C358.03 273.318 366.42 265.388 374.828 257.71C383.073 250.115 391.352 242.775 399.66 235.721C407.853 228.757 416.122 222.087 424.482 215.713C432.786 209.471 441.226 203.548 449.817 197.963C458.416 192.505 467.229 187.395 476.24 182.631C485.339 178.008 494.684 173.738 504.258 169.819C513.971 166.034 523.932 162.587 534.123 159.492C544.477 156.487 555.05 153.8 565.84 151.447C576.783 149.151 587.919 147.137 599.232 145.404C610.657 143.689 622.233 142.219 633.959 140.993C645.761 139.717 657.674 138.633 669.697 137.754C681.768 136.789 693.91 135.977 706.121 135.318C718.376 134.51 730.672 133.833 743.012 133.274C755.383 132.548 767.801 131.923 780.233 131.395C792.697 130.7 805.175 130.102 817.687 129.587C830.212 128.918 842.767 128.348 855.334 127.89C867.927 127.295 880.544 126.83 893.162 126.536C905.803 126.121 918.439 125.909 931.086 125.901C943.744 125.833 956.385 126.027 969.026 126.487" stroke="url(#paint3_linear_313_137)" stroke-width="2.5" stroke-linecap="round" stroke-dasharray="13 18"/>
<path opacity="0.61" d="M996.4 160.245C1008.39 161.275 1020.12 162.592 1031.6 164.186C1043.06 165.837 1054.25 167.822 1065.14 170.135C1075.99 172.548 1086.52 175.315 1096.73 178.421C1106.87 181.668 1116.67 185.266 1126.13 189.229C1135.49 193.342 1144.5 197.801 1153.12 202.599C1161.65 207.551 1169.82 212.846 1177.6 218.449C1185.3 224.207 1192.63 230.259 1199.6 236.594C1206.53 243.03 1213.14 249.756 1219.44 256.743C1225.74 263.826 1231.82 271.142 1237.67 278.692C1243.64 286.315 1249.47 294.16 1255.25 302.199C1261.23 310.299 1267.25 318.616 1273.36 327.125C1279.82 335.684 1286.49 344.431 1293.39 353.373C1300.75 362.359 1308.44 371.544 1316.49 380.909C1325.05 390.294 1334 399.863 1343.32 409.611C1353.09 419.336 1363.18 429.229 1373.53 439.244C1384.14 449.192 1394.85 459.24 1405.5 469.341C1416.12 479.323 1426.46 489.304 1436.36 499.263C1445.81 509.01 1454.54 518.67 1462.36 528.204C1469.38 537.458 1475.27 546.533 1479.93 555.425C1484.72 568.187 1486.35 592.337 1483.58 603.848C1479.16 615.013 1468.13 637.46 1463.07 649.126C1460.01 661.33 1460.99 688.115 1465.74 702.861C1470.87 713.185 1477.12 723.908 1484.35 735.029C1492.49 746.343 1501.03 757.921 1509.6 769.664C1518.04 781.363 1525.76 793.053 1532.35 804.661C1537.69 815.967 1541.25 827.025 1542.76 837.773C1542.37 848.088 1539.73 858.047 1534.86 867.638C1528.27 876.854 1519.84 885.792 1509.89 894.539C1499.23 903.11 1487.92 911.706 1476.43 920.404C1465.65 929.263 1455.74 938.353 1447.08 947.729C1440.18 957.522 1434.96 967.714 1431.48 978.318C1429.95 989.385 1429.97 1000.8 1431.26 1012.55C1433.83 1024.58 1436.98 1036.78 1440.34 1049.02C1443.79 1061.32 1446.62 1073.49 1448.44 1085.43C1449.26 1097.18 1448.48 1108.57 1445.93 1119.56C1441.76 1130.23 1435.69 1140.45 1427.74 1150.26C1418.25 1159.74 1407.19 1168.86 1394.77 1177.66C1381.46 1186.29 1367.37 1194.71 1352.81 1202.99C1338.19 1211.27 1323.69 1219.54 1309.55 1227.83C1296.12 1236.28 1283.44 1244.81 1271.68 1253.47C1261.05 1262.33 1251.45 1271.31 1242.85 1280.39C1235.43 1289.65 1228.87 1298.92 1223.11 1308.18C1218.2 1317.51 1213.79 1326.72 1209.68 1335.71C1204.14 1348.94 1192.42 1373.22 1185.43 1383.96C1177.32 1393.62 1156.84 1409.14 1144.43 1414.9C1135.39 1418.09 1125.73 1420.6 1115.49 1422.42C1104.84 1423.86 1093.73 1424.64 1082.26 1424.82C1070.5 1424.67 1058.5 1423.97 1046.34 1422.73C1034.05 1421.3 1021.69 1419.41 1009.32 1417.12C996.926 1414.76 984.582 1412.09 972.334 1409.17C960.102 1406.31 947.99 1403.31 936.006 1400.19C924.063 1397.31 912.238 1394.42 900.516 1391.59C888.82 1389.11 877.189 1386.77 865.626 1384.62C854.056 1382.96 842.492 1381.53 830.955 1380.4C819.346 1379.82 807.704 1379.57 796.03 1379.64C784.261 1380.29 772.44 1381.27 760.524 1382.57C748.524 1384.4 736.436 1386.51 724.28 1388.82C712.015 1391.57 699.697 1394.47 687.328 1397.43C674.899 1400.64 662.447 1403.8 649.977 1406.84C637.499 1409.9 625.215 1412.66 613.114 1415.02C601.074 1417.21 589.264 1418.87 577.73 1419.97C566.271 1420.71 555.118 1420.75 544.287 1420.12C533.581 1418.98 523.199 1417.09 513.178 1414.42C503.311 1411.2 493.789 1407.21 484.647 1402.44C475.637 1397.14 467.015 1391.09 458.714 1384.36C450.569 1377.14 442.751 1369.28 435.279 1360.84C427.886 1352.03 420.789 1342.69 413.981 1332.93C407.221 1322.91 400.682 1312.55 394.366 1301.89C388.033 1291.1 381.883 1280.11 375.872 1268.97C369.763 1257.82 363.77 1246.6 357.852 1235.36C351.778 1224.2 345.763 1213.07 339.753 1201.99C333.568 1191.08 327.372 1180.27 321.169 1169.56C314.742 1159.08 308.316 1148.73 301.891 1138.5C295.25 1128.54 288.641 1118.72 282.045 1109.04C275.304 1099.61 268.646 1090.31 262.083 1081.16C255.444 1072.24 248.944 1063.44 242.648 1054.74C236.359 1046.29 230.317 1037.91 224.554 1029.6C218.86 1021.49 213.467 1013.43 208.435 1005.38C201.215 993.569 188.738 970.056 183.441 958.254C178.555 946.466 170.266 922.408 166.757 910.033C163.386 897.501 157.522 871.529 155.047 858.078C153.377 849.017 151.92 839.767 150.736 830.358C149.492 820.92 148.509 811.304 147.811 801.548C147.12 791.761 146.745 781.842 146.702 771.792C146.697 761.72 147.02 751.532 147.722 741.226C148.46 730.912 149.54 720.486 150.98 709.953C152.467 699.431 154.313 688.8 156.483 678.07C158.7 667.351 161.257 656.535 164.135 645.634C167.043 634.741 170.242 623.882 173.739 613.091C177.221 602.297 180.969 591.563 184.984 580.89C188.968 570.211 193.187 559.585 197.651 549.046C202.067 538.497 206.699 528.012 211.527 517.604C216.305 507.201 221.299 496.862 226.482 486.63C231.633 476.391 236.993 466.247 242.577 456.201C248.138 446.182 253.971 436.272 260.063 426.516C266.202 416.771 272.633 407.188 279.344 397.747C286.157 388.361 293.257 379.152 300.661 370.122C308.167 361.148 315.957 352.365 324.012 343.784C332.134 335.267 340.473 326.941 349.022 318.837C357.544 310.774 366.225 302.938 375.018 295.316C383.729 287.755 392.505 280.399 401.318 273.288C409.972 266.22 418.647 259.394 427.314 252.803C435.796 246.28 444.266 240.008 452.735 234.005C461.035 228.073 469.366 222.418 477.689 217.06C485.926 211.779 494.197 206.821 502.558 202.168C510.861 197.613 519.297 193.388 527.865 189.494C536.442 185.697 545.203 182.227 554.139 179.112C563.155 176.08 572.386 173.38 581.815 171.011C591.344 168.712 601.106 166.735 611.076 165.058C621.171 163.41 631.472 162.062 641.976 160.966C652.594 159.88 663.402 159.027 674.349 158.411C685.441 157.75 696.668 157.277 708.014 156.989C719.466 156.615 731.028 156.393 742.686 156.319C754.425 156.122 766.251 156.039 778.114 156.075C790.08 155.961 802.072 155.947 814.107 156.022C826.2 155.937 838.329 155.971 850.458 156.068C862.657 156.022 874.849 156.07 887.026 156.241C899.257 156.267 911.485 156.434 923.66 156.746C935.876 156.958 948.068 157.338 960.19 157.924C972.324 158.464 984.402 159.229 996.384 160.241" stroke="url(#paint4_linear_313_137)" stroke-width="2.5" stroke-linecap="round" stroke-dasharray="24 4"/>
<path opacity="0.18" d="M1016.53 193.657C1027.8 195.155 1038.79 196.913 1049.51 198.912C1060.21 200.985 1070.58 203.334 1080.65 205.967C1090.68 208.714 1100.39 211.756 1109.76 215.119C1119.06 218.619 1128.04 222.43 1136.66 226.556C1145.22 230.839 1153.43 235.458 1161.3 240.377C1172.86 248.147 1194.36 265.48 1204.38 274.988C1210.98 281.585 1217.37 288.455 1223.57 295.592C1229.85 302.849 1236 310.392 1242.08 318.184C1248.32 326.089 1254.56 334.252 1260.83 342.647C1267.36 351.147 1274 359.908 1280.79 368.887C1287.93 377.951 1295.28 387.251 1302.87 396.75C1310.84 406.341 1319.06 416.12 1327.53 426.097C1336.36 436.098 1345.39 446.269 1354.6 456.571C1364.03 466.858 1373.53 477.245 1383.01 487.691C1392.49 498.055 1401.76 508.409 1410.72 518.767C1419.38 528.914 1427.5 538.982 1434.96 548.927C1441.82 558.6 1447.82 568.088 1452.82 577.372C1458.58 590.664 1463.26 615.595 1462.23 627.252C1459.32 638.35 1449.75 659.895 1444.2 670.679C1439.46 681.762 1434.04 705.679 1434.38 718.822C1436.31 728.1 1439.34 737.826 1443.45 748.024C1448.79 758.545 1454.95 769.463 1461.77 780.713C1469.17 792.119 1476.69 803.701 1483.97 815.377C1490.94 826.945 1497.02 838.419 1501.9 849.706C1505.57 860.627 1507.53 871.217 1507.57 881.415C1505.92 891.109 1502.27 900.383 1496.63 909.233C1489.53 917.674 1480.82 925.797 1470.8 933.702C1460.19 941.437 1449 949.149 1437.66 956.996C1426.93 965.002 1416.95 973.256 1408.03 981.847C1400.63 990.879 1394.7 1000.35 1390.27 1010.29C1387.59 1020.73 1386.29 1031.6 1386.2 1042.82C1387.34 1054.41 1389.12 1066.21 1391.22 1078.11C1393.58 1090.1 1395.58 1102.01 1396.87 1113.72C1397.46 1125.23 1396.77 1136.39 1394.64 1147.13C1391.17 1157.49 1386.04 1167.38 1379.22 1176.78C1370.98 1185.76 1361.22 1194.28 1350.07 1202.38C1337.92 1210.18 1324.8 1217.66 1310.96 1224.88C1296.79 1231.99 1282.4 1238.97 1268.03 1245.86C1254.03 1252.81 1240.44 1259.79 1227.47 1266.81C1215.33 1274.01 1204.01 1281.27 1193.56 1288.61C1184.13 1296.16 1175.59 1303.74 1167.86 1311.32C1161.08 1319.03 1154.95 1326.67 1149.36 1334.16C1142.1 1345.29 1129 1365.87 1122.44 1374.99C1115.54 1383.22 1099.24 1396.27 1089.6 1400.96C1078.83 1404.42 1054.06 1407.61 1040.21 1407.39C1030.52 1406.78 1020.47 1405.62 1010.12 1403.95C999.519 1402.1 988.716 1399.83 977.734 1397.18C966.602 1394.46 955.37 1391.48 944.065 1388.25C932.665 1385.11 921.236 1381.85 909.808 1378.47C898.291 1375.32 886.804 1372.19 875.334 1369.1C863.792 1366.35 852.27 1363.75 840.758 1361.33C829.162 1359.34 817.577 1357.57 805.974 1356.07C794.279 1355.07 782.562 1354.36 770.801 1353.94C758.948 1354.02 747.048 1354.42 735.115 1355.07C723.072 1356.17 711 1357.53 698.899 1359.08C686.705 1360.98 674.485 1363.01 662.286 1365.08C650.028 1367.4 637.794 1369.63 625.627 1371.76C613.451 1373.92 601.528 1375.82 589.846 1377.38C578.215 1378.78 566.878 1379.74 555.853 1380.19C544.922 1380.34 534.331 1379.91 524.105 1378.85C514.015 1377.37 504.288 1375.23 494.946 1372.4C485.742 1369.09 476.927 1365.08 468.496 1360.4C460.209 1355.22 452.286 1349.37 444.732 1342.88C437.303 1335.95 430.199 1328.42 423.442 1320.34C416.735 1311.88 410.336 1302.94 404.179 1293.55C398.055 1283.89 392.155 1273.85 386.456 1263.5C380.706 1252.99 375.122 1242.22 369.65 1231.26C364.084 1220.23 358.607 1209.07 353.193 1197.82C347.636 1186.6 342.105 1175.35 336.594 1164.09C330.917 1152.92 325.246 1141.79 319.567 1130.74C313.723 1119.83 307.883 1109.03 302.072 1098.34C296.117 1087.83 290.208 1077.45 284.358 1067.2C278.418 1057.18 272.6 1047.31 266.912 1037.56C261.197 1028.05 255.674 1018.69 250.364 1009.44C245.102 1000.42 240.099 991.543 235.4 982.765C230.769 974.2 226.463 965.729 222.49 957.322C216.851 945.029 207.374 920.832 203.501 908.823C199.948 896.922 194.086 872.869 191.683 860.642C189.332 848.301 185.351 822.895 183.736 809.834C182.607 801.026 181.684 792.101 180.966 783.01C180.201 773.905 179.678 764.678 179.436 755.307C179.18 745.931 179.226 736.45 179.612 726.858C180.033 717.26 180.799 707.585 181.92 697.804C183.134 688.049 184.712 678.207 186.667 668.296C188.704 658.394 191.101 648.418 193.874 638.374C196.704 628.363 199.9 618.264 203.447 608.122C207.014 597.97 210.863 587.883 214.996 577.862C219.097 567.831 223.431 557.868 227.985 547.952C232.489 538.038 237.209 528.186 242.094 518.398C246.912 508.607 251.901 498.864 257.045 489.215C262.128 479.548 267.371 469.96 272.801 460.474C278.165 450.984 283.715 441.597 289.479 432.335C295.233 423.103 301.221 413.986 307.458 405.038C313.737 396.118 320.313 387.379 327.154 378.814C334.094 370.309 341.326 362.001 348.844 353.904C356.493 345.877 364.408 338.072 372.575 330.483C380.836 322.97 389.328 315.684 398.016 308.631C406.717 301.647 415.577 294.901 424.551 288.38C433.461 281.906 442.443 275.677 451.469 269.686C460.362 263.736 469.252 258.011 478.129 252.539C486.824 247.111 495.479 241.912 504.101 236.977C512.535 232.101 520.926 227.468 529.299 223.104C541.619 216.778 566.099 205.637 578.399 200.863C590.693 196.473 615.882 189.312 628.847 186.53C642.082 184.114 669.577 180.735 683.839 179.708C693.547 179.102 703.419 178.721 713.462 178.549C723.635 178.335 733.963 178.325 744.439 178.487C755.045 178.559 765.768 178.792 776.613 179.173C787.566 179.424 798.631 179.804 809.775 180.304C821.013 180.67 832.335 181.14 843.696 181.702C855.15 182.13 866.647 182.635 878.158 183.256C889.736 183.72 901.342 184.305 912.916 184.992C924.563 185.557 936.168 186.253 947.746 187.087C959.352 187.832 970.907 188.739 982.37 189.828C993.853 190.907 1005.24 192.169 1016.51 193.652" stroke="url(#paint5_linear_313_137)" stroke-width="2.5" stroke-linecap="round" stroke-dasharray="8 12"/>
<path opacity="0.46" d="M1032.72 226.898C1043.27 228.812 1053.54 230.941 1063.55 233.306C1073.54 235.743 1083.24 238.425 1092.65 241.365C1102 244.401 1111.07 247.73 1119.83 251.342C1132.74 257.101 1157.02 270.367 1168.4 277.866C1179.48 285.915 1200.43 303.815 1210.43 313.647C1217.09 320.455 1223.61 327.561 1230.04 334.976C1236.56 342.525 1243.06 350.374 1249.53 358.51C1256.18 366.772 1262.86 375.328 1269.64 384.144C1276.62 393.098 1283.72 402.288 1290.95 411.741C1298.43 421.278 1306.05 431.063 1313.82 441.047C1321.82 451.096 1329.93 461.328 1338.14 471.715C1346.49 482.115 1354.85 492.617 1363.17 503.221C1371.47 513.75 1379.61 524.305 1387.49 534.851C1395.14 545.255 1402.38 555.559 1409.09 565.779C1415.37 575.747 1420.98 585.545 1425.8 595.135C1431.65 608.934 1437.69 634.764 1437.81 646.782C1436.13 658.105 1428.55 679.58 1423.36 690.015C1418.23 700.457 1409.6 722.334 1407.1 734.172C1406.7 742.488 1407.18 751.224 1408.57 760.43C1411.15 770.002 1414.62 780.019 1418.94 790.464C1424.19 801.2 1429.97 812.273 1436.11 823.619C1442.57 835.028 1448.89 846.55 1454.79 858.074C1460.21 869.399 1464.68 880.549 1467.93 891.406C1470 901.848 1470.47 911.877 1469.21 921.447C1466.46 930.476 1461.92 939.044 1455.65 947.151C1448.14 954.823 1439.25 962.157 1429.22 969.258C1418.72 976.174 1407.72 983.08 1396.56 990.094C1385.95 997.284 1375.96 1004.73 1366.86 1012.51C1359.09 1020.75 1352.56 1029.47 1347.32 1038.64C1343.63 1048.36 1341.19 1058.54 1339.81 1069.12C1339.62 1080.11 1340.1 1091.34 1340.97 1102.73C1342.24 1114.26 1343.36 1125.75 1344 1137.07C1344.21 1148.23 1343.47 1159.05 1341.59 1169.46C1338.65 1179.49 1334.3 1189.03 1328.5 1198C1321.46 1206.54 1312.98 1214.53 1303.19 1222.01C1292.38 1229.11 1280.5 1235.78 1267.77 1242.05C1254.5 1248.11 1240.77 1253.89 1226.8 1259.48C1212.88 1265.01 1199.08 1270.46 1185.59 1275.86C1172.64 1281.36 1160.25 1286.86 1148.53 1292.4C1137.63 1298.11 1127.48 1303.84 1118.11 1309.6C1105.71 1318.44 1085.35 1335.88 1076.92 1344.21C1069.52 1352.21 1055.72 1366.23 1048.76 1371.98C1033.44 1380.13 1006.04 1385.59 995.156 1385.07C983.454 1383.65 957.855 1378.21 944.136 1374.4C934.652 1371.69 924.952 1368.7 915.06 1365.49C904.972 1362.35 894.745 1359.07 884.383 1355.7C873.841 1352.52 863.212 1349.35 852.491 1346.2C841.626 1343.37 830.671 1340.64 819.66 1338.06C808.504 1335.85 797.286 1333.85 786.004 1332.05C774.585 1330.7 763.107 1329.59 751.57 1328.72C739.911 1328.3 728.193 1328.13 716.442 1328.17C704.571 1328.61 692.679 1329.23 680.776 1330.02C668.766 1331.14 656.778 1332.32 644.819 1333.57C632.794 1334.99 620.842 1336.35 608.995 1337.61C597.121 1338.91 585.511 1339.96 574.201 1340.73C562.942 1341.37 551.986 1341.62 541.382 1341.46C530.853 1341.01 520.702 1340.07 510.917 1338.59C501.257 1336.74 491.972 1334.32 483.096 1331.29C474.331 1327.83 465.974 1323.77 457.989 1319.1C450.142 1313.99 442.666 1308.27 435.552 1301.98C428.534 1295.25 421.845 1287.99 415.48 1280.21C409.173 1272.05 403.146 1263.43 397.359 1254.37C391.612 1245.03 386.066 1235.3 380.694 1225.26C375.304 1214.99 370.065 1204.47 364.952 1193.71C359.76 1182.85 354.656 1171.8 349.618 1160.63C344.488 1149.42 339.402 1138.15 334.353 1126.83C329.2 1115.55 324.068 1104.26 318.991 1093.01C313.798 1081.89 308.654 1070.81 303.585 1059.8C298.427 1048.98 293.374 1038.25 288.44 1027.65C283.462 1017.26 278.639 1006.99 274 996.88C269.379 986.985 264.979 977.232 260.808 967.642C256.727 958.264 252.897 949.039 249.368 939.969C244.356 926.726 235.986 901.08 232.62 888.61C229.603 876.394 224.893 852.229 223.096 840.194C221.37 828.152 218.619 803.773 217.509 791.341C216.362 778.781 214.652 753.046 214.169 739.884C213.85 731.055 213.759 722.126 213.927 713.108C214.095 704.09 214.551 694.992 215.327 685.826C216.169 676.668 217.359 667.451 218.924 658.202C220.57 648.964 222.606 639.7 225.041 630.379C227.562 621.105 230.473 611.803 233.777 602.46C237.158 593.143 240.912 583.793 245.005 574.415C249.143 565.052 253.55 555.751 258.214 546.54C262.833 537.314 267.685 528.152 272.713 519.069C277.671 509.945 282.784 500.908 288.049 491.924C293.202 482.918 298.502 473.979 303.926 465.117C309.239 456.232 314.692 447.429 320.274 438.737C325.79 430.038 331.486 421.451 337.342 412.986C343.187 404.55 349.236 396.251 355.51 388.129C361.818 380.052 368.395 372.168 375.227 364.471C382.148 356.855 389.363 349.456 396.843 342.265C404.446 335.199 412.313 328.341 420.442 321.738C428.67 315.236 437.136 308.964 445.792 302.956C454.502 297.033 463.378 291.347 472.383 285.904C481.356 280.547 490.412 275.417 499.518 270.517C508.514 265.677 517.523 261.07 526.529 256.692C535.366 252.353 544.164 248.246 552.904 244.381C565.712 238.715 590.736 228.65 603.002 224.252C615.004 220.139 638.857 213.235 650.798 210.476C662.736 207.995 687.068 204.389 699.545 203.227C712.254 202.311 738.53 201.598 752.118 201.744C761.336 201.848 770.72 202.141 780.242 202.614C789.885 202.998 799.675 203.532 809.578 204.22C819.607 204.805 829.75 205.496 839.991 206.335C850.353 207.037 860.793 207.848 871.312 208.769C881.932 209.561 892.6 210.452 903.315 211.442C914.106 212.327 924.929 213.305 935.738 214.409C946.628 215.394 957.482 216.515 968.317 217.775C979.179 218.964 990.001 220.302 1000.73 221.823C1011.5 223.305 1022.15 224.993 1032.71 226.893" stroke="url(#paint6_linear_313_137)" stroke-width="2.5" stroke-linecap="round" stroke-dasharray="21 15"/>
<path opacity="0.47" d="M1048.19 260.949C1058.06 263.222 1067.68 265.7 1077.08 268.416C1086.46 271.175 1095.59 274.186 1104.49 277.45C1117.64 282.618 1142.66 294.497 1154.51 301.272C1166.12 308.547 1188.21 324.881 1198.79 333.948C1205.8 340.267 1212.67 346.902 1219.43 353.838C1226.25 360.937 1232.98 368.364 1239.66 376.075C1246.42 383.969 1253.17 392.145 1259.92 400.624C1266.79 409.236 1273.68 418.142 1280.62 427.3C1287.69 436.583 1294.8 446.118 1301.95 455.886C1309.24 465.729 1316.55 475.765 1323.86 485.986C1331.23 496.231 1338.55 506.624 1345.78 517.097C1352.97 527.551 1359.98 538.035 1366.75 548.551C1373.32 558.919 1379.56 569.262 1385.34 579.503C1390.79 589.554 1395.68 599.441 1399.96 609.171C1403.75 618.616 1406.82 627.828 1409.14 636.795C1411.34 649.658 1411 673.608 1408.6 684.756C1405.05 695.391 1395.57 715.964 1390.38 726.204C1385.81 736.682 1379.34 759.158 1378.14 771.445C1378.55 780.121 1379.74 789.22 1381.7 798.762C1384.61 808.663 1388.22 818.971 1392.42 829.642C1397.26 840.55 1402.42 851.703 1407.66 863.025C1413 874.356 1418 885.682 1422.46 896.912C1426.34 907.888 1429.23 918.589 1430.94 928.929C1431.54 938.807 1430.68 948.199 1428.26 957.091C1424.54 965.441 1419.25 973.276 1412.49 980.633C1404.69 987.553 1395.7 994.132 1385.73 1000.46C1375.4 1006.61 1364.63 1012.74 1353.71 1018.95C1343.25 1025.35 1333.33 1032 1324.14 1038.97C1316.1 1046.41 1309.09 1054.3 1303.2 1062.65C1298.66 1071.59 1295.19 1080.97 1292.72 1090.78C1291.33 1101.02 1290.59 1111.55 1290.33 1122.26C1290.53 1133.19 1290.74 1144.08 1290.7 1154.87C1290.44 1165.54 1289.5 1175.93 1287.69 1185.89C1285.12 1195.54 1281.4 1204.69 1276.47 1213.25C1270.49 1221.37 1263.27 1228.9 1254.83 1235.85C1245.42 1242.35 1234.94 1248.33 1223.58 1253.81C1211.56 1258.97 1198.92 1263.75 1185.85 1268.2C1172.58 1272.51 1159.19 1276.59 1145.86 1280.51C1132.77 1284.43 1120.01 1288.28 1107.68 1292.08C1095.91 1295.99 1084.74 1299.88 1074.2 1303.77C1059.81 1309.83 1035.35 1321.93 1025.08 1327.8C1008.33 1338.71 986.543 1351.79 979.566 1354.59C964.651 1357.42 939.047 1356.2 929.187 1353.99C918.646 1351.24 895.682 1343.95 883.329 1339.65C874.778 1336.79 865.98 1333.76 856.967 1330.64C847.717 1327.68 838.276 1324.68 828.67 1321.69C818.839 1318.96 808.839 1316.29 798.691 1313.72C788.352 1311.48 777.877 1309.39 767.28 1307.45C756.485 1305.86 745.593 1304.49 734.608 1303.27C723.428 1302.45 712.186 1301.8 700.886 1301.31C689.441 1301.18 677.951 1301.19 666.432 1301.29C654.811 1301.66 643.193 1302.1 631.62 1302.55C619.961 1303.16 608.379 1303.71 596.885 1304.15C585.377 1304.61 574.141 1304.87 563.179 1304.88C552.263 1304.78 541.668 1304.34 531.393 1303.54C521.207 1302.51 511.38 1301.04 501.925 1299.1C488.083 1295.47 462.483 1285.06 450.7 1278.22C443.111 1273.1 435.867 1267.42 428.949 1261.22C422.155 1254.63 415.68 1247.55 409.497 1239.98C403.404 1232.06 397.568 1223.69 391.977 1214.91C386.429 1205.84 381.099 1196.41 375.952 1186.61C370.802 1176.64 365.824 1166.36 360.991 1155.85C356.122 1145.18 351.366 1134.35 346.724 1123.34C342.036 1112.28 337.435 1101.11 332.933 1089.87C328.358 1078.64 323.898 1067.39 319.51 1056.14C315.098 1044.97 310.789 1033.85 306.599 1022.78C302.41 1011.86 298.35 1001.05 294.454 990.335C290.597 979.805 286.907 969.412 283.448 959.166C280.038 949.124 276.874 939.235 273.95 929.513C271.104 920.007 268.525 910.647 266.223 901.452C263.017 888.006 258.074 862.059 256.288 849.472C254.749 837.154 252.637 812.872 251.971 800.8C251.301 788.778 250.383 764.505 250.094 752.188C249.707 739.779 249.391 714.499 249.566 701.67C249.844 688.733 251.593 662.6 253.219 649.451C255.273 636.33 261.377 610.112 265.466 597.048C268.45 588.391 271.839 579.734 275.591 571.093C279.452 562.482 283.676 553.887 288.248 545.302C292.856 536.716 297.721 528.22 302.817 519.837C307.89 511.427 313.14 503.091 318.547 494.837C323.865 486.546 329.318 478.345 334.874 470.186C340.314 462.013 345.851 453.897 351.479 445.852C356.99 437.793 362.592 429.804 368.302 421.928C373.916 414.028 379.673 406.239 385.554 398.602C391.414 390.972 397.435 383.493 403.653 376.197C409.902 368.948 416.379 361.894 423.071 355.064C429.868 348.311 436.916 341.779 444.223 335.49C451.623 329.306 459.311 323.377 467.23 317.711C475.257 312.157 483.522 306.853 491.99 301.835C500.527 296.896 509.239 292.231 518.08 287.821C526.954 283.492 535.914 279.4 544.931 275.567C553.908 271.784 562.912 268.247 571.907 264.924C585.195 260.116 611.332 251.607 624.094 247.906C636.529 244.42 660.805 238.51 672.661 236.092C684.305 233.871 707.396 230.505 718.925 229.378C730.464 228.421 753.885 227.525 765.847 227.567C778.018 227.729 803.055 228.881 815.947 229.813C829.138 230.786 856.281 233.299 870.232 234.806C879.653 235.738 889.197 236.787 898.812 237.951C908.536 238.991 918.325 240.16 928.17 241.436C938.097 242.611 948.065 243.888 958.056 245.308C968.113 246.621 978.171 248.086 988.207 249.676C998.298 251.222 1008.35 252.921 1018.35 254.796C1028.38 256.634 1038.33 258.675 1048.18 260.943" stroke="url(#paint7_linear_313_137)" stroke-width="2.5" stroke-linecap="round" stroke-dasharray="18 15"/>
<path opacity="0.21" d="M1065.1 297.057C1074.32 299.662 1083.39 302.486 1092.27 305.529C1105.47 310.299 1130.84 321.194 1143.02 327.387C1151.03 331.717 1158.87 336.341 1166.52 341.253C1181.74 351.489 1196.3 362.979 1210.31 375.696C1224.34 389.032 1237.97 403.638 1251.32 419.438C1264.84 435.838 1278.19 453.343 1291.35 471.865C1304.66 490.731 1317.68 510.373 1330.22 530.575C1342.45 550.693 1353.7 570.997 1363.58 591.167C1372.35 610.685 1379.09 629.666 1383.42 647.82C1386.01 664.931 1385.96 681.069 1383.27 696.206C1379.37 710.496 1373.62 724.169 1366.7 737.566C1360.56 751.064 1354.91 765.109 1350.59 780.132C1349.29 796.372 1350.38 814.167 1354.01 833.554C1360.6 854.205 1368.59 875.98 1376.86 898.306C1384.79 920.382 1390.19 941.713 1391.65 961.602C1389.89 975.17 1377.96 998.855 1367.87 1009.03C1359.88 1015.21 1350.87 1021.06 1341.05 1026.64C1330.93 1032.06 1320.45 1037.44 1309.8 1042.89C1299.58 1048.53 1289.78 1054.39 1280.61 1060.54C1272.39 1067.17 1265.04 1074.22 1258.64 1081.73C1253.39 1089.79 1249.09 1098.3 1245.67 1107.22C1243.22 1116.62 1241.42 1126.33 1240.1 1136.23C1238.87 1156.7 1237.33 1176.89 1234.02 1195.99C1228.59 1214 1219.28 1229.85 1205.85 1243.3C1188.94 1254.88 1168.44 1264.22 1145.29 1271.62C1120.71 1278.01 1095.48 1283.3 1070.66 1287.82C1047.13 1292.52 1025.4 1296.98 1005.85 1301.24C988.718 1306.07 973.766 1310.59 960.718 1314.57C949.472 1318.8 939.325 1322.06 929.749 1324.11C920.774 1325.96 911.558 1326.32 901.825 1325.18C891.719 1323.72 880.634 1320.83 868.533 1316.69C855.587 1312.58 841.506 1307.6 826.397 1302.01C810.331 1297.02 793.269 1291.9 775.325 1286.83C756.493 1282.88 736.871 1279.29 716.646 1276.15C706.234 1275.06 695.713 1274.07 685.075 1273.19C674.27 1272.6 663.406 1272.08 652.477 1271.62C641.437 1271.39 630.362 1271.17 619.294 1270.93C608.174 1270.82 597.063 1270.63 586.038 1270.31C574.992 1270.03 564.186 1269.54 553.634 1268.84C543.119 1268.05 532.895 1266.94 522.969 1265.51C513.124 1263.9 503.6 1261.89 494.418 1259.48C485.353 1256.81 476.624 1253.69 468.238 1250.09C451.884 1241.98 436.916 1231.88 423.254 1219.88C410.094 1206.54 398.102 1191.38 387.148 1174.59C376.504 1156.74 366.715 1137.55 357.685 1117.29C348.753 1096.48 340.439 1074.97 332.721 1053.04C325.053 1031.11 317.986 1009.1 311.603 987.278C305.39 965.915 299.961 944.948 295.445 924.544C291.205 904.844 287.936 885.769 285.695 867.347C283.636 849.6 282.512 832.375 282.23 815.609C281.815 799.227 281.991 783.063 282.679 766.991C282.846 750.978 283.325 734.857 284.158 718.58C284.379 702.196 285.049 685.581 286.319 668.825C287.359 652.027 289.352 635.173 292.479 618.368C295.162 605.851 302.506 581.118 307.209 568.923C312.503 556.877 325.119 533.094 332.389 521.349C337.385 513.558 342.611 505.877 348.053 498.301C353.459 490.725 359.038 483.233 364.739 475.817C370.346 468.373 376.047 460.991 381.827 453.7C387.491 446.352 393.205 439.081 398.991 431.879C410.145 417.341 421.6 403.19 433.405 389.536C444.986 375.895 457.19 362.953 470.11 350.84C483.309 339.018 497.455 328.206 512.48 318.493C527.987 309.203 544.315 301.019 561.322 293.973C578.513 287.259 596.088 281.558 613.806 276.841C631.3 272.24 648.644 268.497 665.728 265.578C682.293 262.579 698.514 260.328 714.396 258.845C729.775 257.152 744.946 256.186 760.011 255.963C774.818 255.476 789.72 255.692 804.791 256.61C819.907 257.205 835.387 258.442 851.238 260.307C867.36 261.768 883.924 263.789 900.882 266.328C918.205 268.423 935.913 271.016 953.9 274.105C967.583 276.265 995.283 281.145 1009.23 283.898C1018.56 285.727 1027.9 287.735 1037.2 289.928C1046.54 292.087 1055.83 294.465 1065.07 297.064" stroke="url(#paint8_linear_313_137)" stroke-width="2.5" stroke-linecap="round" stroke-dasharray="25 8"/>
<path opacity="0.96" d="M1083.74 336.18C1101.09 342.05 1117.89 348.864 1134.1 356.613C1150.17 364.677 1165.65 373.834 1180.51 384.131C1195.25 394.888 1209.42 406.865 1223.09 420.035C1236.65 433.737 1249.78 448.625 1262.47 464.601C1275.09 481.042 1287.25 498.453 1298.87 516.663C1310.25 535.066 1320.87 554.02 1330.52 573.237C1339.46 592.224 1347.02 611.131 1352.89 629.684C1357.54 647.527 1360.13 664.695 1360.47 681.027C1359.52 696.492 1356.44 711.115 1351.48 725.006C1346.1 738.429 1339.72 751.604 1333.01 764.875C1327.63 778.643 1323.2 793.256 1320.32 809C1320.17 826.073 1322.06 844.617 1325.82 864.547C1331.68 885.484 1338.18 907.15 1344.26 928.954C1349.51 950.211 1352.07 970.375 1350.85 988.862C1346.11 1005.34 1336.67 1019.64 1322.65 1031.83C1305.9 1042.49 1286.44 1052.09 1265.67 1061.43C1246.3 1071.53 1228.92 1082.71 1214.44 1095.4C1203.86 1110.27 1196.33 1126.72 1191.19 1144.32C1188.21 1163.12 1185.42 1181.78 1181.64 1199.56C1176.56 1216.53 1168.55 1231.49 1157.23 1244.1C1143.01 1254.9 1125.52 1263.27 1105.39 1269.43C1083.48 1274.3 1060.37 1277.63 1036.96 1279.8C1014 1281.79 992.084 1283.24 971.732 1284.34C953.168 1285.93 936.533 1287.28 921.757 1288.31C908.778 1289.82 897.184 1290.79 886.669 1291C877.073 1291.43 867.847 1290.89 858.632 1289.26C849.434 1287.7 839.723 1285.08 829.307 1281.45C818.318 1278.06 806.354 1273.9 793.417 1269.17C779.592 1265.03 764.737 1260.62 748.881 1256.13C732.13 1252.55 714.45 1249.11 696.006 1245.85C676.775 1243.6 656.94 1241.51 636.679 1239.5C615.928 1238.2 595.011 1236.68 574.147 1234.71C553.22 1232.81 533.136 1230.03 514.025 1226.15C495.267 1221.67 477.674 1215.71 461.312 1208.18C445.493 1199.62 430.959 1189.29 417.658 1177.27C404.934 1164.12 393.359 1149.32 382.892 1133.05C372.857 1115.86 363.777 1097.42 355.618 1078C347.77 1058.08 340.742 1037.49 334.529 1016.51C328.601 995.504 323.481 974.428 319.232 953.517C315.284 932.969 312.243 912.802 310.128 893.168C308.32 874.098 307.406 855.615 307.407 837.713C307.486 820.353 308.279 803.444 309.723 786.97C310.875 770.724 312.426 754.683 314.311 738.739C315.575 722.77 317.067 706.732 318.775 690.618C319.922 674.352 321.464 658.021 323.56 641.642C325.481 625.273 328.336 608.997 332.268 592.947C336.563 577.099 342.238 561.592 349.377 546.473C357.053 531.637 366.138 517.157 376.581 503.024C387.205 488.992 398.577 475.449 410.46 462.35C421.996 449.058 433.748 436.082 445.623 423.424C456.958 410.519 468.433 397.995 480.099 385.951C491.479 373.855 503.333 362.449 515.722 351.877C528.297 341.551 541.67 332.24 555.806 324.03C570.404 316.257 585.791 309.635 601.837 304.164C618.196 299.064 634.989 295.025 652.046 291.988C669.041 289.112 686.02 287.083 702.843 285.857C719.311 284.54 735.492 283.902 751.346 283.917C766.776 283.679 781.928 284.016 796.843 284.952C811.493 285.526 826.07 286.647 840.65 288.34C855.2 289.625 869.923 291.451 884.871 293.794C899.98 295.692 915.429 298.102 931.206 301.014C947.216 303.485 963.589 306.462 980.25 309.974C997.148 313.101 1014.27 316.835 1031.53 321.211C1048.91 325.375 1066.35 330.334 1083.73 336.172" stroke="url(#paint9_linear_313_137)" stroke-width="2.5" stroke-linecap="round" stroke-dasharray="17 1"/>
<path opacity="0.67" d="M1102.7 378.324C1119.02 384.81 1134.88 392.203 1150.22 400.526C1165.44 409.118 1180.1 418.745 1194.2 429.435C1208.12 440.534 1221.45 452.732 1234.2 466.006C1246.73 479.697 1258.66 494.424 1269.92 510.021C1280.88 525.963 1291.08 542.647 1300.39 559.868C1309.18 577.132 1316.87 594.673 1323.23 612.264C1328.77 629.514 1332.72 646.512 1334.9 663.016C1336.03 678.887 1335.3 694.115 1332.73 708.63C1329.34 722.556 1324.47 735.932 1318.44 748.885C1312.6 761.826 1306.47 774.877 1300.54 788.355C1296.22 802.67 1293.03 817.977 1291.3 834.493C1291.89 852.317 1294.01 871.404 1297.37 891.575C1302.05 912.458 1306.71 933.657 1310.46 954.595C1313.06 974.71 1312.97 993.486 1309.41 1010.41C1302.79 1025.33 1292.15 1038.09 1277.68 1048.78C1261.05 1058.09 1242.16 1066.35 1222.19 1074.29C1203.39 1082.95 1186.22 1092.54 1171.46 1103.46C1159.96 1116.47 1151.12 1130.95 1144.47 1146.55C1139.94 1163.45 1135.98 1180.39 1131.61 1196.67C1126.62 1212.45 1119.58 1226.44 1110.04 1238.25C1098.2 1248.42 1083.58 1256.13 1066.53 1261.49C1047.64 1265.41 1027.24 1267.46 1006.07 1268C984.68 1268.04 963.678 1267.21 943.571 1265.77C924.575 1264.63 907.066 1263.19 891.11 1261.5C876.637 1260.38 863.597 1259 851.788 1257.21C841.014 1255.91 830.943 1254.08 821.294 1251.59C811.948 1249.5 802.491 1246.7 792.707 1243.24C782.614 1240.2 771.818 1236.57 760.234 1232.47C747.974 1228.97 734.733 1225.18 720.587 1221.19C705.599 1218.01 689.689 1214.76 672.946 1211.48C655.477 1209.01 637.31 1206.49 618.623 1203.83C599.484 1201.73 580.067 1199.24 560.557 1196.2C541.001 1193.23 522.113 1189.38 504.081 1184.51C486.357 1179.16 469.66 1172.5 454.078 1164.43C439.065 1155.52 425.234 1145.09 412.591 1133.16C400.593 1120.31 389.759 1106.02 380.077 1090.44C370.959 1074.12 362.925 1056.69 355.934 1038.41C349.45 1019.71 343.938 1000.42 339.424 980.792C335.363 961.154 332.242 941.449 330.106 921.888C328.338 902.635 327.505 883.68 327.608 865.19C327.944 847.144 329.086 829.554 330.985 812.463C332.816 795.718 335.225 779.34 338.064 763.29C340.481 747.342 343.172 731.531 346.029 715.788C348.258 699.942 350.631 684.058 353.161 668.145C355.185 652.095 357.571 636.053 360.495 620.131C363.32 604.239 367.014 588.603 371.76 573.321C376.896 558.341 383.308 543.84 391.126 529.881C399.445 516.258 409.094 503.148 419.984 490.511C431.048 477.985 442.779 466.031 454.891 454.559C466.694 442.89 478.627 431.563 490.569 420.555C501.982 409.249 513.413 398.305 524.884 387.83C536.024 377.219 547.455 367.273 559.261 358.121C571.14 349.143 583.658 341.163 596.808 334.249C610.356 327.737 624.603 322.388 639.476 318.196C654.734 314.395 670.48 311.7 686.543 310.019C702.746 308.556 719.046 307.95 735.329 308.145C751.437 308.285 767.379 309.078 783.061 310.463C798.457 311.592 813.606 313.212 828.482 315.305C843.139 317.018 857.63 319.162 872.026 321.745C886.361 323.863 900.739 326.417 915.185 329.401C929.743 331.92 944.485 334.87 959.463 338.285C974.617 341.256 990.025 344.722 1005.66 348.721C1021.5 352.383 1037.54 356.638 1053.7 361.58C1069.98 366.321 1086.33 371.869 1102.68 378.316" stroke="url(#paint10_linear_313_137)" stroke-width="2.5" stroke-linecap="round" stroke-dasharray="21 11"/>
<path opacity="0.25" d="M1119.33 422.349C1134.62 429.366 1149.44 437.236 1163.75 445.965C1177.89 454.891 1191.47 464.758 1204.42 475.556C1217.13 486.647 1229.16 498.696 1240.46 511.622C1251.44 524.842 1261.6 538.861 1270.88 553.548C1279.7 568.415 1287.5 583.758 1294.16 599.417C1300.18 615.007 1304.91 630.681 1308.18 646.196C1310.66 661.41 1311.59 676.281 1310.89 690.676C1309.45 704.632 1306.48 718.087 1302.13 731.046C1297.5 743.788 1291.97 756.3 1285.82 768.761C1280.31 781.577 1274.93 794.837 1270.09 808.781C1266.84 823.724 1264.67 839.74 1263.71 856.893C1264.54 875.201 1266.39 894.506 1268.87 914.539C1272.01 934.955 1274.66 955.284 1276.08 974.997C1276.19 993.708 1273.73 1010.88 1268.16 1026.09C1260.02 1039.41 1248.51 1050.6 1233.83 1059.82C1217.47 1067.81 1199.28 1074.79 1180.2 1081.39C1162.09 1088.71 1145.33 1096.75 1130.52 1105.95C1118.43 1117.08 1108.62 1129.55 1100.77 1143.08C1094.92 1157.99 1089.87 1173.07 1084.9 1187.7C1079.79 1202.14 1073.38 1215.07 1065.23 1226.08C1055.4 1235.69 1043.34 1242.98 1029.18 1247.92C1013.33 1251.37 995.924 1252.78 977.489 1252.44C958.386 1251.32 939.122 1249.02 920.214 1245.84C901.783 1242.7 884.291 1239.11 867.939 1235.21C852.619 1231.82 838.508 1228.26 825.543 1224.5C813.5 1221.37 802.288 1218 791.703 1214.35C781.536 1211.28 771.56 1207.86 761.564 1204.06C751.446 1200.84 740.941 1197.28 729.928 1193.38C718.395 1190.11 706.124 1186.6 693.082 1182.86C679.363 1179.85 664.811 1176.67 649.507 1173.31C633.554 1170.64 616.944 1167.72 599.809 1164.53C582.265 1161.77 564.409 1158.54 546.411 1154.65C528.377 1150.83 510.911 1146.16 494.159 1140.54C477.734 1134.57 462.232 1127.4 447.751 1119.02C433.834 1110.01 421.059 1099.67 409.451 1088.08C398.495 1075.74 388.748 1062.22 380.177 1047.59C372.293 1032.38 365.556 1016.26 359.971 999.425C354.994 982.258 351.124 964.616 348.346 946.719C346.078 928.766 344.844 910.785 344.617 892.913C344.764 875.232 345.824 857.803 347.754 840.731C349.803 823.918 352.558 807.439 355.922 791.34C359.121 775.373 362.702 759.663 366.59 744.153C369.988 728.599 373.546 713.122 377.179 697.68C380.221 682.063 383.341 666.425 386.629 650.83C389.481 635.096 392.685 619.479 396.404 604.08C400.114 588.77 404.665 573.853 410.189 559.444C416.109 545.377 423.235 531.908 431.605 519.141C440.487 506.724 450.567 494.938 461.75 483.752C473.123 472.684 485.039 462.257 497.264 452.36C509.179 442.24 521.161 432.496 533.099 423.087C544.49 413.323 555.805 403.908 567.057 394.931C577.922 385.752 588.921 377.17 600.117 369.308C611.329 361.554 622.974 354.709 635.092 348.898C647.536 343.418 660.582 339.065 674.164 335.848C688.16 333.027 702.64 331.304 717.478 330.611C732.609 330.185 747.937 330.634 763.352 331.916C778.815 333.214 794.221 335.145 809.473 337.679C824.636 339.993 839.6 342.762 854.349 345.955C868.986 348.778 883.445 351.955 897.76 355.49C912.032 358.571 926.26 361.986 940.471 365.755C954.751 369.054 969.111 372.737 983.573 376.802C998.181 380.453 1012.94 384.556 1027.82 389.157C1042.87 393.452 1058.04 398.313 1073.28 403.844C1088.62 409.197 1103.98 415.338 1119.31 422.34" stroke="url(#paint11_linear_313_137)" stroke-width="2.5" stroke-linecap="round" stroke-dasharray="22 16"/>
<path opacity="0.16" d="M1130.72 466.089C1144.92 473.54 1158.58 481.719 1171.63 490.589C1184.54 499.632 1196.76 509.436 1208.24 519.962C1219.44 530.728 1229.83 542.219 1239.34 554.335C1248.45 566.665 1256.6 579.538 1263.68 592.841C1270.26 606.225 1275.65 619.874 1279.8 633.628C1283.34 647.309 1285.53 660.906 1286.32 674.316C1286.5 687.51 1285.29 700.405 1282.75 712.933C1279.78 725.286 1275.7 737.374 1270.69 749.249C1265.78 761.259 1260.4 773.359 1254.85 785.722C1250.12 798.732 1245.73 812.403 1241.98 826.877C1239.62 842.412 1238.1 858.941 1237.48 876.438C1238.11 894.865 1239.23 913.975 1240.47 933.414C1241.91 952.925 1242.51 972.02 1241.71 990.196C1239.57 1007.23 1235.09 1022.62 1227.92 1036.03C1218.6 1047.68 1206.51 1057.34 1191.88 1065.13C1175.96 1071.87 1158.58 1077.63 1140.46 1082.99C1123.16 1088.99 1106.95 1095.59 1092.35 1103.11C1079.95 1112.42 1069.48 1122.92 1060.76 1134.36C1053.84 1147.23 1047.84 1160.36 1042.28 1173.24C1036.91 1186.22 1030.86 1197.98 1023.7 1208.14C1015.42 1217.22 1005.49 1224.19 993.91 1228.97C980.873 1232.35 966.4 1233.64 950.833 1233.06C934.383 1231.53 917.44 1228.6 900.412 1224.54C883.354 1220.25 866.734 1215.31 850.808 1209.89C835.413 1204.81 820.883 1199.52 807.281 1194.1C794.291 1189.29 782.084 1184.4 770.548 1179.44C759.354 1175.14 748.528 1170.74 737.887 1166.2C727.21 1162.34 716.395 1158.33 705.348 1154.15C693.898 1150.64 681.989 1146.97 669.538 1143.13C656.534 1139.93 642.908 1136.54 628.703 1132.95C613.948 1129.91 598.655 1126.58 582.94 1122.88C566.878 1119.54 550.543 1115.67 534.129 1111.14C517.662 1106.66 501.738 1101.41 486.498 1095.31C471.546 1088.95 457.483 1081.57 444.399 1073.18C431.836 1064.29 420.386 1054.33 410.107 1043.32C400.471 1031.78 392.046 1019.25 384.855 1005.86C378.325 992.01 373.017 977.438 368.923 962.316C365.436 946.92 363.108 931.151 361.92 915.177C361.219 899.132 361.567 883.03 362.896 867.017C364.528 851.069 367.009 835.284 370.243 819.727C373.54 804.241 377.416 788.962 381.745 773.91C385.842 758.81 390.223 743.82 394.774 728.947C398.874 713.891 403.032 698.841 407.261 683.808C410.944 668.554 414.73 653.304 418.674 638.161C422.287 622.891 426.284 607.832 430.777 593.095C435.331 578.527 440.669 564.435 446.907 550.973C453.554 537.882 461.282 525.528 470.128 513.94C479.455 502.762 489.836 492.279 501.179 482.475C512.717 472.81 524.679 463.832 536.872 455.425C548.795 446.799 560.726 438.543 572.526 430.646C583.825 422.361 594.991 414.414 605.983 406.851C616.574 399.002 627.154 391.71 637.796 385.035C648.36 378.377 659.188 372.539 670.335 367.647C681.709 362.999 693.548 359.396 705.821 356.873C718.491 354.712 731.628 353.617 745.114 353.553C758.957 353.779 773.083 354.921 787.381 356.89C801.881 358.942 816.439 361.687 830.967 365.035C845.586 368.234 860.108 371.92 874.48 376.01C888.885 379.803 903.146 383.923 917.26 388.349C931.423 392.389 945.493 396.699 959.496 401.297C973.578 405.474 987.652 409.968 1001.72 414.801C1015.93 419.242 1030.18 424.083 1044.43 429.37C1058.83 434.364 1073.24 439.88 1087.62 445.998C1102.07 451.969 1116.46 458.642 1130.69 466.069" stroke="url(#paint12_linear_313_137)" stroke-width="2.5" stroke-linecap="round" stroke-dasharray="17 16"/>
<path opacity="0.82" d="M1134.74 506.996C1147.79 514.72 1160.15 522.991 1171.82 531.776C1183.32 540.683 1194.04 550.139 1203.88 560.112C1213.48 570.243 1222.13 580.871 1229.78 591.887C1237.04 603.043 1243.23 614.534 1248.28 626.244C1252.87 637.995 1256.24 649.858 1258.39 661.712C1260.04 673.532 1260.45 685.257 1259.61 696.811C1258.38 708.296 1256.02 719.63 1252.64 730.799C1249.13 742.036 1244.88 753.277 1240.05 764.572C1235.54 776.285 1230.87 788.36 1226.23 800.914C1222.45 814.265 1219.03 828.36 1216.15 843.282C1214.34 859.15 1213.11 875.877 1212.38 893.322C1212.4 911.406 1212.5 929.824 1212.35 948.226C1212.02 966.414 1210.67 983.915 1207.89 1000.29C1203.83 1015.47 1197.71 1028.96 1189.3 1040.54C1179.17 1050.53 1166.82 1058.66 1152.45 1065.08C1137.13 1070.63 1120.65 1075.26 1103.6 1079.45C1087.18 1084.25 1071.68 1089.48 1057.48 1095.45C1045.06 1103.02 1034.23 1111.6 1024.93 1121.04C1017.19 1131.87 1010.44 1143.04 1004.29 1154.12C998.592 1165.53 992.654 1176.04 986.151 1185.27C978.982 1193.76 970.676 1200.45 961.21 1205.18C950.586 1208.71 938.755 1210.26 925.923 1209.93C912.157 1208.6 897.751 1205.73 882.987 1201.6C867.848 1196.99 852.758 1191.52 837.951 1185.4C823.26 1179.4 809.065 1173.05 795.459 1166.5C782.16 1160.43 769.454 1154.29 757.284 1148.16C745.322 1142.64 733.738 1137.15 722.428 1131.7C711.064 1126.9 699.757 1122.11 688.393 1117.29C676.722 1113.1 664.812 1108.89 652.602 1104.57C639.947 1100.83 626.914 1096.98 613.499 1092.9C599.649 1089.33 585.439 1085.47 570.981 1081.25C556.222 1077.31 541.326 1072.88 526.462 1067.85C511.543 1062.87 497.203 1057.22 483.567 1050.9C470.179 1044.36 457.663 1037.02 446.123 1028.86C435.055 1020.35 425.099 1010.97 416.28 1000.8C408.056 990.223 401.038 978.889 395.262 966.9C390.095 954.573 386.149 941.678 383.405 928.368C381.226 914.829 380.194 900.974 380.256 886.967C380.748 872.843 382.244 858.633 384.631 844.45C387.245 830.219 390.613 816.016 394.647 801.931C398.655 787.759 403.122 773.643 407.979 759.607C412.546 745.392 417.342 731.172 422.275 716.971C426.768 702.496 431.34 687.987 435.97 673.488C440.172 658.747 444.501 644.057 449.026 629.506C453.345 614.893 458.036 600.577 463.238 586.665C468.547 572.957 474.611 559.832 481.479 547.42C488.743 535.413 496.973 524.203 506.18 513.821C515.819 503.856 526.365 494.655 537.76 486.188C549.296 477.871 561.178 470.253 573.222 463.23C585.032 455.995 596.795 449.162 608.382 442.682C619.549 435.796 630.495 429.219 641.208 422.984C651.537 416.419 661.739 410.313 671.873 404.742C681.868 399.086 691.969 394.146 702.26 390.018C712.668 386.039 723.417 383.011 734.461 380.956C745.853 379.198 757.623 378.466 769.733 378.706C782.203 379.232 794.99 380.666 807.989 382.954C821.289 385.389 834.752 388.528 848.275 392.295C862.014 396.048 875.764 400.279 889.455 404.968C903.301 409.436 917.076 414.265 930.753 419.389C944.55 424.217 958.262 429.308 971.876 434.651C985.631 439.654 999.312 444.93 1012.92 450.48C1026.68 455.722 1040.36 461.292 1053.95 467.211C1067.68 472.921 1081.3 479.058 1094.77 485.676C1108.31 492.184 1121.67 499.271 1134.73 506.985" stroke="url(#paint13_linear_313_137)" stroke-width="2.5" stroke-linecap="round" stroke-dasharray="10 21"/>
<path opacity="0.29" d="M1130.73 542.946C1142.51 550.772 1153.54 558.941 1163.77 567.418C1173.84 576.009 1183.05 584.928 1191.33 594.139C1199.35 603.493 1206.4 613.117 1212.4 622.963C1218.06 632.906 1222.65 643.006 1226.12 653.196C1229.2 663.448 1231.17 673.746 1232 683.992C1232.5 694.303 1231.92 704.563 1230.33 714.765C1228.56 725.069 1225.91 735.395 1222.53 745.75C1219.22 756.411 1215.41 767.272 1211.27 778.425C1207.56 790.171 1203.79 802.426 1200.12 815.261C1197.17 828.906 1194.51 843.29 1192.17 858.371C1190.57 874.241 1189.24 890.719 1188.05 907.626C1187.21 924.884 1186.13 942.143 1184.53 959.09C1182.53 975.608 1179.45 991.239 1175 1005.6C1169.4 1018.8 1162.06 1030.35 1152.82 1040.09C1142.24 1048.44 1129.9 1055.12 1116 1060.25C1101.41 1064.68 1085.92 1068.26 1069.99 1071.39C1054.58 1075.08 1039.91 1079.05 1026.29 1083.6C1014.06 1089.55 1003.14 1096.34 993.522 1103.88C985.225 1112.75 977.886 1121.97 971.254 1131.24C965.195 1141.02 959.217 1150.2 953.038 1158.41C946.579 1166.21 939.447 1172.54 931.535 1177.24C922.816 1180.99 913.185 1182.95 902.722 1183.19C891.439 1182.47 879.487 1180.21 867.053 1176.59C854.07 1172.39 840.889 1167.17 827.683 1161.13C814.288 1154.96 801.061 1148.31 788.122 1141.33C775.195 1134.6 762.594 1127.73 750.382 1120.84C738.163 1114.41 726.239 1108.04 714.564 1101.72C702.786 1095.97 691.119 1090.31 679.507 1084.71C667.632 1079.68 655.686 1074.68 643.627 1069.69C631.194 1065.19 618.591 1060.63 605.833 1055.96C592.718 1051.66 579.45 1047.16 566.103 1042.38C552.506 1037.84 538.959 1032.9 525.557 1027.47C512.109 1022.06 499.319 1016.18 487.259 1009.78C475.411 1003.24 464.443 996.082 454.459 988.332C444.875 980.314 436.355 971.67 428.967 962.448C422.082 952.907 416.385 942.821 411.861 932.266C407.874 921.427 405.046 910.172 403.372 898.612C402.166 886.807 402.043 874.759 402.931 862.573C404.159 850.193 406.293 837.705 409.24 825.17C412.32 812.454 416.065 799.698 420.393 786.93C424.638 773.942 429.297 760.882 434.266 747.8C438.96 734.436 443.864 720.993 448.906 707.489C453.595 693.69 458.378 679.829 463.274 665.994C467.86 651.93 472.635 637.971 477.642 624.227C482.558 610.458 487.86 597.04 493.656 584.13C499.637 571.455 506.277 559.435 513.664 548.16C521.422 537.312 530.004 527.288 539.443 518.144C549.242 509.394 559.821 501.444 571.112 494.25C582.556 487.213 594.224 480.88 605.994 475.128C617.577 469.207 629.087 463.684 640.389 458.492C651.329 452.927 662.03 447.637 672.444 442.641C682.508 437.284 692.362 432.3 702.072 427.779C711.596 423.044 721.107 418.929 730.648 415.479C740.268 412.086 750.037 409.503 760.023 407.777C770.276 406.256 780.788 405.659 791.585 405.964C802.725 406.532 814.138 407.97 825.782 410.231C837.772 412.669 849.962 415.832 862.263 419.651C874.869 423.537 887.569 427.947 900.272 432.837C913.231 437.627 926.197 442.809 939.081 448.314C952.202 453.633 965.265 459.232 978.193 465.076C991.336 470.689 1004.39 476.548 1017.3 482.642C1030.39 488.503 1043.36 494.654 1056.12 501.08C1069.03 507.337 1081.74 513.945 1094.19 520.925C1106.72 527.81 1118.91 535.14 1130.71 542.945" stroke="url(#paint14_linear_313_137)" stroke-width="2.5" stroke-linecap="round" stroke-dasharray="21 2"/>
<path opacity="0.44" d="M1119.6 573.012C1130.08 580.745 1139.76 588.653 1148.61 596.715C1157.34 604.864 1165.18 613.181 1172.09 621.642C1178.79 630.193 1184.51 638.893 1189.23 647.676C1193.7 656.555 1197.15 665.525 1199.59 674.523C1201.76 683.615 1202.93 692.746 1203.17 701.9C1203.18 711.186 1202.34 720.546 1200.72 729.942C1199.02 739.615 1196.68 749.448 1193.82 759.494C1191.1 769.969 1188.07 780.807 1184.8 792.062C1181.93 803.953 1179 816.396 1176.15 829.404C1173.79 843.134 1171.54 857.464 1169.42 872.308C1167.71 887.704 1165.96 903.447 1164.1 919.32C1162.27 935.284 1159.99 950.988 1157.04 966.138C1153.59 980.707 1149.08 994.259 1143.34 1006.54C1136.61 1017.7 1128.44 1027.31 1118.76 1035.27C1108.07 1042.07 1096 1047.37 1082.75 1051.32C1069.02 1054.71 1054.61 1057.34 1039.86 1059.53C1025.51 1062.19 1011.75 1065.05 998.869 1068.33C987.02 1072.82 976.25 1077.97 966.564 1083.75C957.956 1090.75 950.217 1098.12 943.211 1105.62C936.791 1113.78 930.654 1121.53 924.605 1128.64C915.311 1138.55 893.94 1151.13 881.386 1153.2C872.144 1153.27 862.327 1151.91 852.049 1149.21C841.182 1145.87 829.99 1141.46 818.593 1136.14C806.834 1130.53 795.004 1124.27 783.236 1117.52C771.242 1110.85 759.38 1103.9 747.672 1096.79C735.819 1089.97 724.118 1083.12 712.598 1076.3C700.865 1069.88 689.249 1063.55 677.717 1057.3C665.922 1051.49 654.131 1045.75 642.38 1040.07C630.303 1034.77 618.202 1029.48 606.106 1024.14C593.715 1019.12 581.336 1013.96 569.056 1008.63C556.562 1003.49 544.258 998.055 532.229 992.287C520.175 986.54 508.818 980.485 498.228 974.108C487.799 967.604 478.261 960.702 469.703 953.41C461.442 945.906 454.221 937.984 448.062 929.669C442.317 921.108 437.679 912.159 434.142 902.885C431.031 893.356 428.996 883.523 428.016 873.459C427.394 863.156 427.747 852.626 429.021 841.952C430.538 831.027 432.85 819.958 435.897 808.771C439.027 797.34 442.721 785.766 446.941 774.097C451.056 762.114 455.563 750.002 460.355 737.786C464.928 725.244 469.732 712.581 474.693 699.835C479.408 686.804 484.277 673.732 489.312 660.708C494.181 647.516 499.287 634.477 504.664 621.704C510.049 608.964 515.839 596.644 522.11 584.881C528.585 573.378 535.667 562.554 543.414 552.523C551.486 542.894 560.287 534.108 569.792 526.184C579.612 518.65 590.097 511.91 601.17 505.923C612.366 500.078 623.721 494.926 635.118 490.378C646.373 485.642 657.528 481.323 668.488 477.335C679.121 472.968 689.518 468.884 699.626 465.047C709.408 460.808 718.95 456.897 728.295 453.339C737.427 449.509 746.45 446.183 755.42 443.377C768.889 439.436 796.503 435.243 810.857 435.207C820.782 435.635 830.922 436.869 841.26 438.864C851.934 441.054 862.8 443.951 873.793 447.503C885.121 451.152 896.585 455.37 908.09 460.095C919.915 464.828 931.766 469.978 943.602 475.498C955.712 480.923 967.779 486.661 979.761 492.665C991.973 498.547 1004.09 504.662 1016.05 511.023C1028.21 517.228 1040.19 523.669 1051.93 530.36C1063.83 536.924 1075.46 543.757 1086.75 550.865C1098.12 557.926 1109.09 565.299 1119.59 573" stroke="url(#paint15_linear_313_137)" stroke-width="2.5" stroke-linecap="round" stroke-dasharray="8 2"/>
<path opacity="0.47" d="M1103.47 597.776C1112.66 605.248 1121.07 612.823 1128.7 620.434C1136.21 628.117 1142.88 635.872 1148.69 643.695C1156.7 655.579 1168.02 679.799 1171.33 692.114C1173.53 704.724 1173.83 730.742 1172.24 744.304C1171 753.747 1169.25 763.467 1167.09 773.5C1165.1 783.998 1162.82 794.916 1160.37 806.28C1158.18 818.202 1155.89 830.636 1153.54 843.545C1151.48 856.982 1149.33 870.814 1147.11 884.965C1145.04 899.413 1142.73 913.934 1140.09 928.341C1137.29 942.626 1133.92 956.438 1129.84 969.54C1125.23 982.002 1119.67 993.409 1113.01 1003.56C1105.6 1012.72 1097 1020.47 1087.23 1026.76C1076.71 1032.09 1065.16 1036.13 1052.72 1039.02C1039.96 1041.48 1026.68 1043.25 1013.14 1044.62C999.922 1046.4 987.18 1048.26 975.106 1050.42C963.834 1053.6 953.4 1057.3 943.844 1061.49C935.134 1066.79 927.2 1072.43 919.939 1078.26C910.067 1087.95 891.846 1105.65 882.648 1112.5C872.774 1117.72 850.408 1121.1 837.844 1119.22C828.823 1117.01 819.447 1113.74 809.814 1109.5C799.762 1104.93 789.512 1099.6 779.164 1093.67C768.484 1087.65 757.755 1081.22 747.054 1074.5C736.057 1067.88 725.107 1061.11 714.23 1054.26C703.09 1047.66 691.987 1041.06 680.982 1034.48C669.674 1028.21 658.438 1021.99 647.263 1015.82C635.801 1009.92 624.402 1004.05 613.119 998.185C601.591 992.543 590.177 986.842 578.974 981.05C567.611 975.389 556.509 969.547 545.775 963.506C535.005 957.472 524.977 951.284 515.704 944.934C506.562 938.493 498.291 931.809 490.912 924.905C483.781 917.83 477.629 910.494 472.453 902.919C465.653 891.106 457.494 865.95 456.043 852.67C455.651 843.488 456.133 834.118 457.406 824.58C458.864 814.761 461.031 804.774 463.814 794.625C466.66 784.167 470.042 773.546 473.877 762.763C477.641 751.649 481.778 740.372 486.213 728.963C490.528 717.238 495.083 705.385 499.856 693.476C504.493 681.337 509.353 669.177 514.438 657.128C519.46 644.97 524.782 633.022 530.423 621.386C536.126 609.859 542.253 598.779 548.84 588.275C555.632 578.066 562.992 568.547 570.919 559.795C579.137 551.45 587.973 543.912 597.389 537.209C607.079 530.867 617.318 525.267 628.033 520.421C638.853 515.711 649.783 511.667 660.714 508.174C671.551 504.556 682.256 501.315 692.778 498.409C703.066 495.172 713.096 492.171 722.857 489.394C736.967 484.78 763.716 476.477 776.542 473.057C789.203 469.867 814.642 466.353 827.617 466.236C836.52 466.489 845.562 467.445 854.733 469.091C864.182 470.868 873.8 473.308 883.531 476.392C893.58 479.578 903.744 483.332 913.971 487.613C924.504 491.929 935.098 496.716 945.709 501.89C956.576 507.059 967.43 512.578 978.226 518.386C989.249 524.15 1000.19 530.178 1010.97 536.455C1021.96 542.644 1032.74 549.066 1043.3 555.707C1054 562.282 1064.4 569.087 1074.44 576.102C1084.56 583.085 1094.26 590.301 1103.46 597.764" stroke="url(#paint16_linear_313_137)" stroke-width="2.5" stroke-linecap="round" stroke-dasharray="16 6"/>
<path opacity="0.7" d="M1084.88 619.206C1092.86 626.335 1100.12 633.517 1106.67 640.729C1115.99 651.655 1130.71 673.848 1136.09 685.157C1140.5 696.711 1145.57 720.583 1146.38 733.003C1146.67 741.597 1146.39 750.408 1145.62 759.484C1144.88 768.876 1143.72 778.606 1142.22 788.677C1140.81 799.154 1139.14 810.023 1137.24 821.29C1135.46 832.972 1133.5 845.026 1131.36 857.389C1129.3 870.069 1127.03 882.963 1124.51 895.947C1121.96 908.981 1119.02 921.902 1115.64 934.497C1112.02 946.81 1107.78 958.537 1102.85 969.485C1097.44 979.769 1091.21 989.045 1084.07 997.155C1076.34 1004.42 1067.7 1010.44 1058.13 1015.2C1048.05 1019.21 1037.21 1022.13 1025.71 1024.06C1014 1025.71 1001.91 1026.76 989.61 1027.41C977.539 1028.43 965.866 1029.45 954.688 1030.65C944.098 1032.71 934.161 1035.13 924.928 1037.94C912.359 1043.74 890.881 1057.48 881.467 1064.6C872.551 1071.76 854.702 1082.65 845.321 1085.75C835.248 1087.29 813.104 1084.59 801.048 1080.54C792.545 1077.2 783.809 1073.1 774.911 1068.33C765.667 1063.38 756.284 1057.92 746.819 1052.05C737.031 1046.15 727.191 1039.98 717.327 1033.61C707.193 1027.34 697.038 1020.96 686.926 1014.5C676.541 1008.21 666.192 1001.91 655.92 995.582C645.403 989.46 634.962 983.309 624.695 977.162C614.207 971.168 603.88 965.13 593.823 959.037C583.64 953.04 573.749 946.937 564.255 940.683C554.742 934.458 545.92 928.176 537.825 921.833C529.83 915.412 522.63 908.888 516.251 902.245C507.403 891.997 494.377 870.488 490.233 859.191C487.288 847.397 485.753 822.555 486.975 809.512C488.15 800.498 489.956 791.281 492.316 781.89C494.73 772.21 497.645 762.333 500.971 752.297C504.293 741.971 507.98 731.476 512.011 720.863C515.961 709.988 520.221 699.033 524.755 688.057C529.242 676.927 534.011 665.844 539.087 654.902C544.153 643.948 549.56 633.242 555.319 622.888C561.205 612.693 567.494 602.983 574.225 593.842C581.157 585 588.579 576.826 596.506 569.403C604.678 562.342 613.364 556.045 622.551 550.519C631.943 545.325 641.779 540.846 652.011 537.038C662.352 533.365 672.735 530.324 683.104 527.803C693.404 525.178 703.593 522.931 713.612 520.972C723.448 518.74 733.055 516.74 742.43 514.936C756.027 511.794 781.798 506.105 794.095 503.739C806.127 501.407 829.912 498.778 841.805 498.687C853.947 499.193 878.929 503.232 891.791 506.769C900.643 509.397 909.584 512.554 918.582 516.225C927.849 519.951 937.147 524.15 946.47 528.756C956.042 533.391 965.59 538.388 975.092 543.743C984.8 549.062 994.435 554.701 1003.93 560.588C1013.6 566.445 1023.1 572.567 1032.35 578.894C1041.74 585.194 1050.85 591.723 1059.62 598.439C1068.46 605.148 1076.89 612.072 1084.87 619.193" stroke="url(#paint17_linear_313_137)" stroke-width="2.5" stroke-linecap="round" stroke-dasharray="14 18"/>
<path opacity="0.35" d="M1065.93 639.946C1075.88 650.089 1092.67 670.766 1099.46 681.317C1107.8 695.65 1113.62 710.459 1117.1 725.739C1120.23 741.696 1121.28 758.527 1120.55 776.321C1119.81 795.217 1117.63 815.377 1114.32 836.622C1111.09 858.896 1106.67 881.844 1100.95 904.673C1094.72 927.126 1086.51 948.025 1075.99 966.139C1063.9 981.868 1048.95 993.694 1031.23 1001.2C1021.81 1004.04 1011.82 1006 1001.34 1007.14C990.751 1008.08 979.871 1008.51 968.821 1008.58C957.923 1008.95 947.334 1009.27 937.141 1009.7C927.343 1010.8 918.042 1012.14 909.27 1013.78C893.109 1019.42 878.823 1025.81 866.101 1032.24C854.166 1040.08 842.642 1046.19 831.153 1049.85C818.984 1052.8 806.113 1052.46 792.546 1048.96C777.739 1044.36 762.156 1037.04 746.107 1027.64C728.833 1017.89 711.214 1006.77 693.584 994.843C674.914 983.229 656.371 971.141 638.366 958.801C629.096 952.792 619.996 946.692 611.16 940.538C602.203 934.431 593.56 928.228 585.281 921.918C576.973 915.623 569.307 909.319 562.292 902.985C555.346 896.614 549.098 890.169 543.571 883.691C532.941 870.385 525.338 856.623 520.663 842.423C516.702 827.489 515.541 811.902 516.881 795.718C518.671 778.57 522.585 760.692 528.257 742.277C534.035 722.943 541.288 703.189 549.844 683.479C558.471 663.449 568.481 644.037 579.868 625.986C591.763 608.669 605.339 593.415 620.611 580.817C628.551 575.034 636.917 569.94 645.694 565.543C654.631 561.449 663.94 557.984 673.585 555.151C683.3 552.439 693.052 550.29 702.77 548.617C712.434 546.885 722.022 545.493 731.437 544.406C749.881 541.45 767.569 539.286 784.33 537.778C800.515 535.044 816.068 533.247 831.057 532.598C846.017 531.365 860.866 531.797 875.662 534.02C890.98 536.282 906.521 540.523 922.143 546.626C938.532 552.9 955.037 560.875 971.318 570.293C988.31 579.754 1004.94 590.45 1020.79 602.18C1028.86 608.018 1036.7 614.086 1044.24 620.389C1051.82 626.683 1059.07 633.192 1065.92 639.933" stroke="url(#paint18_linear_313_137)" stroke-width="2.5" stroke-linecap="round" stroke-dasharray="25 13"/>
<path opacity="0.89" d="M1047.68 662.403C1059.28 675.082 1068.85 688.277 1076.39 701.864C1083.65 715.682 1088.86 730.147 1092.17 745.219C1095.19 760.831 1096.45 777.333 1096.13 794.664C1095.66 812.737 1093.77 831.725 1090.56 851.269C1087.16 871.231 1082.34 891.234 1076.01 910.514C1069.03 929.024 1060.14 945.699 1049.19 959.686C1037.05 971.605 1022.65 980.214 1006.16 985.262C988.8 988.677 969.95 989.568 950.253 988.663C931.03 988.718 912.867 988.811 896.185 989.552C880.79 992.774 866.832 996.63 854.172 1000.67C842.239 1006.24 830.88 1010.79 819.842 1013.75C808.517 1016.61 796.892 1017.09 784.927 1015.08C772.096 1012.36 758.692 1007.25 744.928 1000.11C730.143 992.546 715.014 983.435 699.826 973.154C683.785 962.926 667.817 951.895 652.304 940.277C636.24 928.881 620.911 916.921 606.801 904.464C592.604 892.048 580.654 879.496 571.06 866.81C561.859 853.838 555.168 840.473 550.943 826.767C547.23 812.482 545.899 797.623 546.711 782.283C547.943 766.219 551.087 749.575 555.911 732.598C560.972 715.032 567.573 697.316 575.542 679.888C583.772 662.443 593.444 645.817 604.487 630.607C616.048 616.2 629.155 603.761 643.723 593.723C658.906 584.854 675.5 578.357 693.266 574.257C711.28 570.607 729.253 568.738 746.821 568.151C764.051 566.831 780.688 566.248 796.546 566.248C811.976 565.131 826.805 564.736 841.041 565.147C855.176 564.834 869.06 565.75 882.661 568.011C896.59 570.069 910.523 573.715 924.345 578.935C938.708 584.16 953.032 590.96 967.081 599.153C981.642 607.364 995.835 616.858 1009.35 627.486C1023.15 638.07 1036.04 649.723 1047.67 662.389" stroke="url(#paint19_linear_313_137)" stroke-width="2.5" stroke-linecap="round" stroke-dasharray="22 19"/>
<path opacity="0.88" d="M1030 687.78C1039.72 699.616 1047.77 712.114 1054.17 725.13C1060.36 738.332 1064.86 752.221 1067.74 766.714C1070.39 781.569 1071.47 797.142 1071.11 813.288C1070.52 829.811 1068.51 846.779 1065.13 863.821C1061.4 880.819 1056.21 897.363 1049.5 912.813C1042.18 927.32 1033.14 940.011 1022.37 950.237C1010.79 958.838 997.452 964.725 982.552 967.764C967.137 969.709 950.581 969.641 933.346 968.06C916.425 967.238 900.219 966.249 885.045 965.583C870.694 966.84 857.39 968.531 845.084 970.426C833.333 973.75 822.18 976.521 811.465 978.335C800.668 980.481 789.869 980.98 779.004 979.689C767.598 978.081 755.891 974.543 743.997 969.214C731.387 963.569 718.529 956.357 705.665 947.849C692.146 939.284 678.72 929.649 665.725 919.161C652.287 908.782 639.48 897.603 627.694 885.72C615.864 873.855 605.862 861.731 597.8 849.405C590.011 836.904 584.292 824.016 580.586 810.813C577.283 797.251 575.97 783.2 576.511 768.83C577.426 753.996 580.067 738.828 584.286 723.551C588.807 708.004 594.833 692.578 602.233 677.655C609.978 662.963 619.11 649.203 629.564 636.867C640.467 625.32 652.731 615.565 666.281 607.914C680.254 601.229 695.444 596.609 711.605 594.052C727.955 591.887 744.283 591.312 760.294 591.896C776.107 591.942 791.482 592.71 806.239 594.024C820.716 594.416 834.682 595.36 848.09 596.909C861.386 597.719 874.358 599.39 886.94 602.049C899.699 604.353 912.284 607.86 924.596 612.623C937.258 617.265 949.728 623.232 961.86 630.465C974.307 637.656 986.373 646.098 997.789 655.696C1009.4 665.251 1020.23 675.948 1030 687.78Z" stroke="url(#paint20_linear_313_137)" stroke-width="2.5" stroke-linecap="round" stroke-dasharray="9 21"/>
<path opacity="0.78" d="M1011.8 715.559C1019.8 726.483 1026.41 738.081 1031.62 750.208C1036.68 762.448 1040.29 775.301 1042.53 788.609C1044.54 802.091 1045.17 816.048 1044.48 830.216C1043.51 844.476 1041.2 858.773 1037.58 872.741C1033.61 886.403 1028.24 899.305 1021.52 910.98C1014.31 921.777 1005.64 930.891 995.592 937.908C985.009 943.75 973.108 947.441 960.032 948.949C946.67 949.77 932.412 948.984 917.579 946.956C902.944 945.514 888.738 943.75 875.212 942.07C862.182 941.788 849.844 941.716 838.238 941.775C826.997 943.065 816.247 944.062 805.954 944.483C795.673 945.454 785.536 945.368 775.529 944.05C765.22 942.75 754.846 940.008 744.485 935.811C733.648 931.479 722.751 925.767 711.952 918.785C700.718 911.736 689.632 903.546 678.97 894.369C667.992 885.216 657.577 875.127 648.023 864.165C638.424 853.219 630.335 841.869 623.81 830.26C617.488 818.551 612.835 806.451 609.817 794.101C607.119 781.548 606.08 768.671 606.622 755.628C607.488 742.395 609.879 729.031 613.686 715.799C617.815 702.558 623.328 689.639 630.132 677.399C637.252 665.51 645.673 654.605 655.283 645.031C665.24 636.173 676.4 628.869 688.617 623.38C701.146 618.651 714.68 615.639 729.073 614.41C743.577 613.486 758.091 613.942 772.39 615.447C786.572 616.585 800.467 618.435 813.916 620.793C827.181 622.462 840.059 624.618 852.439 627.232C864.738 629.206 876.699 631.797 888.242 635.112C899.864 637.995 911.214 641.765 922.195 646.489C933.356 651.006 944.237 656.577 954.688 663.218C965.322 669.75 975.528 677.402 985.091 686.146C994.77 694.835 1003.75 704.637 1011.8 715.559Z" stroke="url(#paint21_linear_313_137)" stroke-width="2.5" stroke-linecap="round" stroke-dasharray="20 3"/>
<path opacity="0.7" d="M991.734 743.521C998.151 753.389 1003.34 763.813 1007.35 774.62C1011.25 785.49 1013.9 796.759 1015.36 808.273C1016.65 819.8 1016.7 831.517 1015.59 843.15C1014.24 854.67 1011.67 865.944 1007.95 876.637C1003.94 886.943 998.731 896.39 992.365 904.649C985.69 912.207 977.834 918.343 968.893 922.806C959.667 926.484 949.415 928.52 938.29 928.923C927.014 928.935 915.031 927.7 902.524 925.44C890.135 923.579 877.97 921.339 866.224 918.985C854.749 917.596 843.682 916.225 833.109 914.88C822.743 914.455 812.76 913.846 803.14 912.882C793.56 912.5 784.184 911.455 775.045 909.626C765.744 907.986 756.542 905.327 747.502 901.634C738.196 897.949 728.978 893.154 719.99 887.273C710.731 881.385 701.728 874.438 693.158 866.526C684.389 858.62 676.16 849.769 668.674 840.03C661.156 830.299 654.882 820.12 649.894 809.642C645.015 799.134 641.5 788.305 639.324 777.29C637.364 766.216 636.778 754.963 637.501 743.707C638.489 732.444 640.773 721.246 644.309 710.364C648.089 699.625 653.099 689.352 659.234 679.813C665.617 670.655 673.137 662.437 681.683 655.411C690.473 648.975 700.253 643.837 710.939 640.213C721.822 637.142 733.549 635.49 745.983 635.309C758.507 635.374 771.078 636.611 783.499 638.75C795.878 640.693 808.067 643.295 819.945 646.429C831.74 649.057 843.241 652.165 854.335 655.654C865.401 658.656 876.139 662.13 886.494 666.122C896.867 669.727 906.929 673.975 916.575 678.91C926.319 683.612 935.698 689.115 944.603 695.45C953.617 701.644 962.148 708.751 970.043 716.765C978.007 724.729 985.297 733.642 991.734 743.521Z" stroke="url(#paint22_linear_313_137)" stroke-width="2.5" stroke-linecap="round" stroke-dasharray="9 9"/>
<path opacity="0.89" d="M968.818 768.39C978.64 785.673 984.219 804.197 985.774 822.766C986.851 841.199 983.722 859.039 976.741 874.541C969.065 888.756 957.461 899.375 942.512 904.999C927.011 908.817 908.513 908.134 887.963 903.395C867.692 899.778 847.86 894.856 829.315 889.632C811.176 886.936 793.85 883.187 777.749 877.81C761.322 873.446 745.483 866.202 730.985 855.842C715.835 845.587 702.041 831.991 690.858 815.326C679.576 798.666 672.552 780.541 669.755 762.108C667.524 743.761 669.752 725.386 676.064 708.435C683.071 692.266 694.087 678.401 708.546 668.393C723.556 660.049 741.798 655.999 762.508 656.877C783.393 658.506 804.473 663.606 824.668 670.876C844.731 677.009 864.036 684.86 881.828 694.101C899.707 702.222 916.388 712.374 931.069 724.665C945.966 736.532 958.913 751.109 968.818 768.39Z" stroke="url(#paint23_linear_313_137)" stroke-width="2.5" stroke-linecap="round" stroke-dasharray="2 2"/>
<path opacity="0.2" d="M942.887 786.909C950.047 801.262 953.677 815.828 954.084 829.702C954.211 843.37 951.001 855.866 944.798 866.031C938.245 875.378 928.73 881.799 916.738 884.58C904.515 886.478 890.028 885.124 873.877 880.693C857.844 876.959 841.855 871.74 826.635 865.842C811.559 861.48 797.005 856.135 783.518 849.755C769.876 844.192 756.991 836.817 745.525 827.481C733.758 818.3 723.405 806.833 715.442 793.24C707.396 779.645 702.793 765.228 701.504 750.974C700.504 736.879 702.968 723.252 708.574 711.2C714.586 699.802 723.698 690.5 735.444 684.316C747.499 679.189 762.041 677.373 778.542 679.322C795.143 681.77 811.981 687.078 828.234 694.25C844.46 700.881 860.149 709.074 874.603 718.39C889.113 727.058 902.538 737.154 914.107 748.56C925.811 759.697 935.693 772.545 942.887 786.909Z" stroke="url(#paint24_linear_313_137)" stroke-width="2.5" stroke-linecap="round" stroke-dasharray="11 8"/>
<path opacity="0.29" d="M914.682 796.84C919.468 807.894 921.588 818.446 921.305 827.915C919.518 841.267 904.464 858.84 891.962 861.69C882.968 862.428 872.341 860.911 860.436 857.121C848.556 853.731 836.574 848.913 825.042 843.28C813.525 838.402 802.335 832.628 792.009 826.122C781.59 820.12 771.896 812.997 763.523 804.851C754.986 796.845 747.772 787.538 742.519 777.132C737.218 766.73 734.534 756.216 734.289 746.211C735.331 731.802 749.398 709.487 761.775 703.45C770.771 700.734 781.561 700.412 793.804 702.794C806.082 705.497 818.57 710.344 830.681 716.694C842.772 722.861 854.517 730.359 865.299 738.722C876.1 746.805 886.016 755.885 894.429 765.633C902.895 775.269 909.864 785.789 914.682 796.84Z" stroke="url(#paint25_linear_313_137)" stroke-width="2.5" stroke-linecap="round" stroke-dasharray="4 26"/>
<path opacity="0.67" d="M885.482 797.782C890.318 818.689 869.757 837.919 848.048 832.558C832.475 827.493 816.36 818.111 802.706 807C788.895 796.711 777.323 783.672 771.324 769.459C765.277 755.263 766.226 742.531 772.772 734.009C779.507 726.111 791.777 723.242 807.765 727.459C823.793 732.229 840.419 742.576 854.386 755.321C868.406 767.802 879.871 782.831 885.482 797.782Z" stroke="url(#paint26_linear_313_137)" stroke-width="2.5" stroke-linecap="round" stroke-dasharray="24 3"/>
</g>
<defs>
<linearGradient id="paint0_linear_313_137" x1="844.685" y1="28.0364" x2="844.685" y2="1578.83" gradientUnits="userSpaceOnUse">
<stop stop-color="#1F89DB"/>
<stop offset="1" stop-color="#F42A8B"/>
</linearGradient>
<linearGradient id="paint1_linear_313_137" x1="889.39" y1="56.7969" x2="805.6" y2="1550.96" gradientUnits="userSpaceOnUse">
<stop stop-color="#1F89DB"/>
<stop offset="1" stop-color="#F42A8B"/>
</linearGradient>
<linearGradient id="paint2_linear_313_137" x1="930.547" y1="87.8412" x2="769.194" y2="1521.48" gradientUnits="userSpaceOnUse">
<stop stop-color="#1F89DB"/>
<stop offset="1" stop-color="#F42A8B"/>
</linearGradient>
<linearGradient id="paint3_linear_313_137" x1="968.03" y1="120.899" x2="735.457" y2="1490.52" gradientUnits="userSpaceOnUse">
<stop stop-color="#1F89DB"/>
<stop offset="1" stop-color="#F42A8B"/>
</linearGradient>
<linearGradient id="paint4_linear_313_137" x1="1001.75" y1="155.657" x2="704.401" y2="1458.2" gradientUnits="userSpaceOnUse">
<stop stop-color="#1F89DB"/>
<stop offset="1" stop-color="#F42A8B"/>
</linearGradient>
<linearGradient id="paint5_linear_313_137" x1="1031.66" y1="191.795" x2="676.057" y2="1424.66" gradientUnits="userSpaceOnUse">
<stop stop-color="#1F89DB"/>
<stop offset="1" stop-color="#F42A8B"/>
</linearGradient>
<linearGradient id="paint6_linear_313_137" x1="1057.72" y1="228.998" x2="650.474" y2="1390" gradientUnits="userSpaceOnUse">
<stop stop-color="#1F89DB"/>
<stop offset="1" stop-color="#F42A8B"/>
</linearGradient>
<linearGradient id="paint7_linear_313_137" x1="1079.84" y1="267.157" x2="628.127" y2="1353.33" gradientUnits="userSpaceOnUse">
<stop stop-color="#1F89DB"/>
<stop offset="1" stop-color="#F42A8B"/>
</linearGradient>
<linearGradient id="paint8_linear_313_137" x1="1097.11" y1="305.11" x2="606.831" y2="1317.23" gradientUnits="userSpaceOnUse">
<stop stop-color="#1F89DB"/>
<stop offset="1" stop-color="#F42A8B"/>
</linearGradient>
<linearGradient id="paint9_linear_313_137" x1="1111.89" y1="343.821" x2="590.245" y2="1280.04" gradientUnits="userSpaceOnUse">
<stop stop-color="#1F89DB"/>
<stop offset="1" stop-color="#F42A8B"/>
</linearGradient>
<linearGradient id="paint10_linear_313_137" x1="1122.58" y1="382.347" x2="576.408" y2="1242.26" gradientUnits="userSpaceOnUse">
<stop stop-color="#1F89DB"/>
<stop offset="1" stop-color="#F42A8B"/>
</linearGradient>
<linearGradient id="paint11_linear_313_137" x1="1129.53" y1="420.478" x2="565.65" y2="1204.2" gradientUnits="userSpaceOnUse">
<stop stop-color="#1F89DB"/>
<stop offset="1" stop-color="#F42A8B"/>
</linearGradient>
<linearGradient id="paint12_linear_313_137" x1="1132.84" y1="457.932" x2="558.048" y2="1166.08" gradientUnits="userSpaceOnUse">
<stop stop-color="#1F89DB"/>
<stop offset="1" stop-color="#F42A8B"/>
</linearGradient>
<linearGradient id="paint13_linear_313_137" x1="1132.6" y1="494.436" x2="553.647" y2="1128.12" gradientUnits="userSpaceOnUse">
<stop stop-color="#1F89DB"/>
<stop offset="1" stop-color="#F42A8B"/>
</linearGradient>
<linearGradient id="paint14_linear_313_137" x1="1128.88" y1="529.663" x2="552.455" y2="1090.51" gradientUnits="userSpaceOnUse">
<stop stop-color="#1F89DB"/>
<stop offset="1" stop-color="#F42A8B"/>
</linearGradient>
<linearGradient id="paint15_linear_313_137" x1="1121.8" y1="563.31" x2="554.469" y2="1053.48" gradientUnits="userSpaceOnUse">
<stop stop-color="#1F89DB"/>
<stop offset="1" stop-color="#F42A8B"/>
</linearGradient>
<linearGradient id="paint16_linear_313_137" x1="1111.61" y1="595.201" x2="559.783" y2="1017.39" gradientUnits="userSpaceOnUse">
<stop stop-color="#1F89DB"/>
<stop offset="1" stop-color="#F42A8B"/>
</linearGradient>
<linearGradient id="paint17_linear_313_137" x1="1097.83" y1="625.668" x2="569.234" y2="982.098" gradientUnits="userSpaceOnUse">
<stop stop-color="#1F89DB"/>
<stop offset="1" stop-color="#F42A8B"/>
</linearGradient>
<linearGradient id="paint18_linear_313_137" x1="1082.69" y1="652.905" x2="580.501" y2="949.261" gradientUnits="userSpaceOnUse">
<stop stop-color="#1F89DB"/>
<stop offset="1" stop-color="#F42A8B"/>
</linearGradient>
<linearGradient id="paint19_linear_313_137" x1="1064.49" y1="678.567" x2="595.583" y2="918.347" gradientUnits="userSpaceOnUse">
<stop stop-color="#1F89DB"/>
<stop offset="1" stop-color="#F42A8B"/>
</linearGradient>
<linearGradient id="paint20_linear_313_137" x1="1043.94" y1="701.554" x2="613.55" y2="889.625" gradientUnits="userSpaceOnUse">
<stop stop-color="#1F89DB"/>
<stop offset="1" stop-color="#F42A8B"/>
</linearGradient>
<linearGradient id="paint21_linear_313_137" x1="1021.38" y1="721.847" x2="634.285" y2="863.589" gradientUnits="userSpaceOnUse">
<stop stop-color="#1F89DB"/>
<stop offset="1" stop-color="#F42A8B"/>
</linearGradient>
<linearGradient id="paint22_linear_313_137" x1="997.055" y1="739.292" x2="657.527" y2="840.537" gradientUnits="userSpaceOnUse">
<stop stop-color="#1F89DB"/>
<stop offset="1" stop-color="#F42A8B"/>
</linearGradient>
<linearGradient id="paint23_linear_313_137" x1="971.193" y1="754.024" x2="683.061" y2="821.004" gradientUnits="userSpaceOnUse">
<stop stop-color="#1F89DB"/>
<stop offset="1" stop-color="#F42A8B"/>
</linearGradient>
<linearGradient id="paint24_linear_313_137" x1="944.13" y1="765.341" x2="710.276" y2="804.726" gradientUnits="userSpaceOnUse">
<stop stop-color="#1F89DB"/>
<stop offset="1" stop-color="#F42A8B"/>
</linearGradient>
<linearGradient id="paint25_linear_313_137" x1="916.096" y1="773.532" x2="738.942" y2="792.235" gradientUnits="userSpaceOnUse">
<stop stop-color="#1F89DB"/>
<stop offset="1" stop-color="#F42A8B"/>
</linearGradient>
<linearGradient id="paint26_linear_313_137" x1="885.052" y1="777.11" x2="768.589" y2="782.173" gradientUnits="userSpaceOnUse">
<stop stop-color="#1F89DB"/>
<stop offset="1" stop-color="#F42A8B"/>
</linearGradient>
</defs>
</svg>
