<svg width="811" height="820" viewBox="0 0 811 820" fill="none" xmlns="http://www.w3.org/2000/svg">
<path d="M810.508 352.031L610.115 410.312L810.508 468.569L601.82 467.979L777.698 580.415L577.648 521.004L714.753 678.458L539.513 565.04L626.753 754.766L490.531 596.551L520.814 803.174L434.654 612.957L405.549 819.777L376.445 612.957L290.285 803.174L320.567 596.551L184.37 754.766L271.585 565.04L96.3451 678.458L233.45 521.004L33.4 580.415L209.278 467.979L0.590027 468.569L200.984 410.312L0.590027 352.031L209.278 352.621L33.4 240.21L233.45 299.62L96.3451 142.166L271.585 255.584L184.37 65.8583L320.567 224.074L290.285 17.426L376.445 207.668L405.549 0.847961L434.654 207.668L520.814 17.426L490.531 224.074L626.753 65.8583L539.513 255.584L714.753 142.166L577.648 299.62L777.698 240.21L601.82 352.621L810.508 352.031Z" fill="#FF9FC2"/>
</svg>
